<svg width="117" height="46" viewBox="0 0 117 46" fill="none" xmlns="http://www.w3.org/2000/svg">
<path fill-rule="evenodd" clip-rule="evenodd" d="M17.6496 27.8643L17.696 27.4395C18.2143 24.795 16.9901 23.6616 13.1272 23.6616C9.40541 23.6616 7.75678 24.795 7.28588 27.4395L7.19208 27.9112C6.6738 30.5567 8.36982 31.738 11.7135 31.738C15.1529 31.738 17.2251 30.131 17.6496 27.8643ZM30.7913 25.9283L35.2199 0.800596C35.2594 0.57627 35.3755 0.373148 35.5481 0.226785C35.7206 0.0804217 35.9385 0.000142581 36.1636 0L41.3309 0C41.4709 0.000139221 41.6091 0.0312811 41.736 0.0912402C41.8628 0.151199 41.9751 0.238523 42.065 0.347082C42.1549 0.455641 42.2203 0.582806 42.2565 0.719652C42.2928 0.856497 42.2989 0.999708 42.2747 1.13923L40.8252 9.44566C42.615 8.1234 44.5934 7.17894 48.2214 7.17894C55.2868 7.17894 58.0658 11.9013 57.0766 17.5211L55.428 26.7779C54.2503 33.5311 50.3409 36.7902 41.6259 36.7902C33.4301 36.7902 29.6609 32.2098 30.7913 25.9283ZM48.5511 25.6445L49.87 18.2297C50.3873 15.3014 49.257 13.3185 45.4414 13.3185C41.5794 13.3185 39.7887 15.3014 39.2704 18.2297L37.9515 25.6445C37.4332 28.5729 38.5645 30.5567 42.4265 30.5567C46.242 30.5567 48.0328 28.5729 48.5511 25.6445ZM86.0936 23.9445H67.9586L67.5815 26.2112C67.157 28.7148 67.9103 30.9815 72.4336 30.9815C76.343 30.9815 78.2275 29.8481 78.651 27.4874C78.6641 27.4206 78.6996 27.3604 78.7517 27.3172C78.8037 27.274 78.869 27.2504 78.9363 27.2506H84.5852C84.702 27.2507 84.8174 27.2763 84.9236 27.3256C85.0298 27.375 85.1242 27.447 85.2003 27.5366C85.2765 27.6263 85.3327 27.7315 85.365 27.8451C85.3974 27.9588 85.4051 28.0781 85.3877 28.1951C84.3985 33.7679 80.4882 36.7902 71.8679 36.7902C63.3414 36.7902 59.668 32.1148 60.751 26.1172L62.2585 17.3802C63.53 10.579 67.4403 7.17894 76.1544 7.17894C84.5397 7.17894 88.2605 11.7594 87.1775 17.8999L86.0946 23.9445H86.0936ZM69.0416 17.8519L68.8066 19.3161H80.0647L80.3471 17.8049C80.8653 14.7826 79.6412 12.9877 75.5897 12.9877C71.397 12.9877 69.5599 14.9715 69.0416 17.8519ZM102.581 28.384C106.444 28.384 108.234 26.4001 108.752 23.5667L109.647 18.3246C110.165 15.4433 109.034 13.5074 105.219 13.5074C101.403 13.5074 99.6134 15.4433 99.0951 18.3246L98.2007 23.5667C97.6824 26.4001 98.7654 28.384 102.581 28.384ZM105.878 7.17894C114.075 7.17894 117.938 11.8543 116.807 18.2297L113.793 35.326C112.378 43.1186 107.998 46 100.32 46H99.5196C92.6891 46 88.2605 42.552 88.9674 36.9321C88.994 36.7865 89.0702 36.6548 89.1827 36.5601C89.2952 36.4653 89.4369 36.4134 89.5833 36.4134H95.7978C95.4207 38.5852 96.9756 40.0963 100.273 40.0963C104.465 40.0963 106.208 38.1604 106.679 35.468L107.338 31.926C105.549 33.3431 103.617 34.1457 99.8493 34.1457C93.3486 34.1457 90.0039 29.6592 91.0869 23.4727L92.1235 17.4741C93.3012 10.7209 97.2105 7.17796 105.878 7.17796V7.17894ZM20.766 3.72306C20.9118 3.72322 21.0557 3.75701 21.1866 3.82188C21.3176 3.88674 21.4322 3.98098 21.5218 4.09741C21.6114 4.21385 21.6736 4.34942 21.7036 4.49383C21.7337 4.63824 21.7308 4.78769 21.6952 4.93081L20.9807 7.80238C25.3029 9.22153 27.406 12.9289 26.5986 17.5211L24.9036 27.1557C23.8593 33.0505 20.4653 35.7929 15.1887 36.5847L14.5602 39.1049C14.5081 39.3146 14.3882 39.5008 14.2197 39.6337C14.0512 39.7667 13.8437 39.8389 13.63 39.8389H7.98691C7.84092 39.839 7.69685 39.8053 7.56568 39.7404C7.4345 39.6756 7.31968 39.5812 7.22997 39.4647C7.14026 39.3481 7.07802 39.2123 7.04799 39.0677C7.01797 38.9231 7.02095 38.7735 7.05671 38.6302L7.55855 36.6189C2.37865 35.7704 -0.526049 32.5269 0.0773232 28.0062L0.172083 27.3446C0.831538 22.1965 4.31736 19.1742 12.4668 19.1742C15.5755 19.1742 17.8836 19.6469 18.9675 20.2606L19.391 17.758C19.9093 15.0185 18.6852 13.1766 15.1984 13.1766C12.2782 13.1766 10.1587 14.168 9.73514 16.6706H2.95108C3.75557 10.9382 6.84689 7.83957 13.4898 7.27387L14.1927 4.45515C14.2452 4.24577 14.3652 4.06009 14.5337 3.92749C14.7022 3.7949 14.9095 3.72296 15.1229 3.72306H20.7651H20.766Z" fill="#753FF6"/>
</svg>
