<svg width="179" height="46" viewBox="0 0 179 46" fill="none" xmlns="http://www.w3.org/2000/svg">
<g clip-path="url(#clip0_14_326)">
<path d="M94.484 2.10754C94.5084 2.06572 94.5366 2.06572 94.5705 2.10754L94.5197 2.14936L94.484 2.10754Z" fill="#0124DD"/>
<path d="M51.2889 16.7139C51.8323 15.0526 52.3475 13.4824 52.8514 11.9256C52.9134 11.7356 53.0394 11.6918 53.203 11.6614C55.9236 11.1482 58.6554 10.711 61.4343 10.8498C63.3954 10.9429 65.2812 11.3478 66.9696 12.4123C69.2596 13.8531 70.3069 16.0239 70.4554 18.6851C70.5419 20.2153 70.2956 21.7265 70.0794 23.2244C69.63 26.2772 69.1675 29.3261 68.7332 32.3789C68.7213 32.5069 68.6756 32.6294 68.6008 32.7334C68.5261 32.8374 68.425 32.9191 68.3082 32.9701C66.5371 33.9528 64.6156 34.4908 62.6414 34.8177C60.1983 35.2457 57.7063 35.3097 55.2448 35.0078C53.1935 34.7474 51.2814 34.103 49.7923 32.5785C49.1461 31.9095 48.6445 31.1121 48.3192 30.2367C47.994 29.3613 47.8522 28.4272 47.9029 27.4935C47.9537 26.5599 48.1958 25.647 48.6139 24.813C49.0321 23.9789 49.6171 23.2418 50.3319 22.6484C51.8586 21.3786 53.6636 20.7475 55.5644 20.3389C58.443 19.723 61.3478 19.8066 64.2546 20.0309C64.6175 20.0575 64.6964 19.9454 64.7134 19.6184C64.8431 17.326 63.4818 15.6798 61.0921 15.2369C59.4338 14.929 57.8056 15.1951 56.1774 15.465C54.516 15.7414 52.8807 16.1592 51.2889 16.7139ZM61.4569 23.6293C60.4221 23.6224 59.3885 23.6993 58.3659 23.8593C57.2604 24.0493 56.1868 24.344 55.2956 25.0853C54.2878 25.9236 54.0189 27.0489 54.2182 28.2883C54.4063 29.4193 55.1884 30.039 56.2018 30.4039C56.6663 30.5691 57.1496 30.6745 57.6402 30.7176C59.4526 30.8943 61.2125 30.575 62.961 30.1378C63.0796 30.122 63.1884 30.0628 63.2667 29.9713C63.345 29.8799 63.3874 29.7626 63.386 29.6417C63.6247 27.8454 63.8616 26.0471 64.1249 24.2546C64.17 23.9448 64.0685 23.8859 63.8128 23.8364C63.0339 23.7064 62.2463 23.6372 61.4569 23.6293Z" fill="#114185"/>
<path d="M135.227 29.2329C134.926 30.1568 134.663 30.9836 134.385 31.8105C134.163 32.4891 133.926 33.162 133.716 33.8463C133.696 33.9511 133.645 34.0474 133.571 34.1232C133.497 34.199 133.402 34.2508 133.298 34.2721C130.422 35.0477 127.507 35.4678 124.537 35.0895C121.152 34.658 118.355 33.1886 116.64 30.0503C115.585 28.1076 115.25 25.992 115.393 23.8117C115.666 19.664 117.375 16.2253 120.553 13.5622C122.484 11.9427 124.736 11.1101 127.214 10.863C128.923 10.6938 130.623 10.7262 132.29 11.1957C135.686 12.1461 137.95 14.8168 138.384 18.3524C138.634 20.3844 138.384 22.3803 138.059 24.3781C138.019 24.6272 137.895 24.6348 137.707 24.6348C136.795 24.6348 135.882 24.6348 134.97 24.6348C130.583 24.6348 126.196 24.6348 121.809 24.6348C121.455 24.6348 121.352 24.7222 121.346 25.0891C121.297 28.0772 122.929 30.0503 125.834 30.554C127.981 30.9342 130.07 30.6054 132.155 30.1454C133.198 29.9096 134.224 29.6048 135.227 29.2329ZM127.556 20.7551H131.768C133.054 20.7551 133.054 20.7551 133.097 19.4549C133.185 16.8222 131.593 15.1057 129.004 14.9594C125.907 14.7826 122.987 17.0503 122.235 20.4148C122.173 20.6943 122.235 20.7627 122.517 20.7608C124.193 20.7475 125.864 20.7551 127.556 20.7551Z" fill="#114185"/>
<path d="M146.038 35.1656C143.277 35.147 140.537 34.685 137.92 33.7969C137.658 33.7057 137.589 33.6297 137.683 33.3426C138.113 32.026 138.525 30.703 138.918 29.3736C139.016 29.0467 139.131 29.0733 139.39 29.1988C141.904 30.442 144.743 30.8466 147.499 30.3545C148.146 30.2549 148.759 30.0008 149.289 29.6131C149.534 29.4414 149.738 29.2163 149.886 28.9543C150.033 28.6924 150.121 28.4003 150.142 28.0996C150.164 27.7989 150.118 27.4971 150.009 27.2166C149.899 26.9361 149.729 26.6839 149.511 26.4786C149.033 26.0314 148.497 25.6527 147.917 25.3533C146.478 24.5397 145.015 23.7775 143.649 22.8347C139.977 20.2932 140.424 15.0031 144.04 12.6822C145.642 11.6538 147.396 11.1387 149.259 10.9429C152.365 10.6178 155.368 11.1558 158.327 12.0568C158.598 12.1385 158.667 12.2127 158.564 12.5035C158.118 13.7524 157.688 15.0088 157.284 16.2729C157.176 16.6055 157.049 16.5808 156.795 16.463C154.944 15.5799 152.917 15.1378 150.87 15.1704C149.878 15.1951 148.909 15.3605 148.069 15.9536C147.712 16.1839 147.439 16.5264 147.293 16.9285C147.147 17.3306 147.135 17.7701 147.26 18.1795C147.422 18.6385 147.728 19.0316 148.131 19.2991C149.001 19.9606 149.998 20.4073 150.951 20.9357C152.117 21.5514 153.231 22.2648 154.279 23.0685C157.378 25.5548 157.064 30.2918 154.091 32.6983C152.173 34.2475 149.928 34.8671 147.541 35.0876C146.941 35.1409 146.345 35.1504 146.038 35.1656Z" fill="#114185"/>
<path d="M166.32 35.1654C163.596 35.1388 160.893 34.6815 158.308 33.8101C158.009 33.7094 157.932 33.62 158.043 33.3007C158.468 32.0119 158.87 30.7155 159.262 29.4153C159.356 29.0998 159.45 29.0542 159.754 29.2024C162.257 30.4341 165.08 30.8397 167.824 30.3619C168.412 30.2686 168.975 30.0566 169.48 29.7385C170.727 28.9344 170.879 27.4574 169.826 26.4234C169.385 26.0222 168.894 25.6803 168.365 25.4064C166.861 24.5434 165.299 23.7717 163.883 22.7452C160.617 20.3596 161.023 16.0427 163.02 13.8758C164.366 12.4178 166.066 11.6346 167.952 11.2146C170.454 10.6443 172.955 10.7812 175.454 11.2488C176.506 11.4389 177.537 11.7278 178.567 12.0091C178.909 12.1061 179.033 12.2087 178.889 12.6041C178.454 13.7959 178.059 15.0011 177.676 16.2157C177.569 16.5484 177.462 16.5959 177.138 16.4533C175.312 15.5863 173.316 15.1452 171.298 15.1626C170.358 15.1798 169.45 15.3204 168.63 15.8184C167.854 16.288 167.461 16.9704 167.578 17.9094C167.651 18.5063 168.006 18.9226 168.454 19.2647C169.394 19.9851 170.475 20.4604 171.498 21.0306C172.663 21.6826 173.814 22.3612 174.831 23.2375C177.682 25.7086 177.36 30.2897 174.5 32.6468C172.964 33.9147 171.182 34.5724 169.258 34.9126C168.287 35.0722 167.304 35.1567 166.32 35.1654Z" fill="#114185"/>
<path d="M91.8329 29.5694C91.737 30.1396 91.4945 30.6509 91.3159 31.1889C90.9756 32.2135 90.6127 33.2285 90.2762 34.255C90.2514 34.3576 90.1951 34.4497 90.1154 34.518C90.0357 34.5863 89.9366 34.6273 89.8324 34.6352C87.5762 35.0153 85.2956 35.2567 83.0037 35.0819C79.5836 34.8214 76.6506 33.5612 74.635 30.6148C73.2136 28.5391 72.7116 26.1801 72.8376 23.6957C73.0482 19.5518 74.7854 16.1607 77.9874 13.5641C79.8224 12.0776 81.9808 11.3477 84.2803 11.0435C87.1266 10.6357 90.0251 10.8109 92.8031 11.5587C93.3333 11.705 93.8447 11.9103 94.3655 12.0814C94.5535 12.1422 94.6024 12.224 94.5329 12.4312C94.0891 13.7428 93.6492 15.0582 93.2337 16.3793C93.1415 16.6701 93.0118 16.6112 92.8257 16.537C91.4981 15.9867 90.0923 15.6536 88.6611 15.5505C85.5645 15.3737 82.872 16.2348 80.9392 18.8409C79.1286 21.2835 78.8485 25.3399 80.7869 27.792C81.9921 29.3127 83.5828 30.1187 85.4704 30.3411C87.5067 30.5806 89.4752 30.1833 91.4193 29.6188C91.5434 29.5827 91.6694 29.558 91.7953 29.5275L91.8329 29.5694Z" fill="#114185"/>
<path d="M113.267 29.5428C112.834 30.8012 112.338 32.0462 111.983 33.3312C111.725 34.2684 111.291 34.7132 110.279 34.8158C107.459 35.1009 104.639 35.4203 101.819 34.6656C97.3832 33.4738 94.4859 29.8964 94.2452 25.2469C93.982 20.1944 95.896 16.1569 99.9215 13.1707C101.614 11.918 103.588 11.3249 105.648 11.0531C108.494 10.6466 111.392 10.8211 114.169 11.5664C114.685 11.7089 115.179 11.9218 115.692 12.072C115.961 12.1518 115.969 12.2754 115.88 12.513C115.45 13.7847 115.023 15.0563 114.623 16.3375C114.527 16.6436 114.412 16.6322 114.166 16.5371C112.195 15.7768 110.18 15.3643 108.053 15.5867C104.441 15.9783 101.693 18.3924 100.999 21.9451C100.499 24.5093 100.957 26.855 102.979 28.6703C104.59 30.115 106.551 30.518 108.64 30.3944C110.113 30.2963 111.57 30.0154 112.975 29.558C113.06 29.5428 113.135 29.4725 113.267 29.5428Z" fill="#114185"/>
<path d="M41.6399 24.3116L18.2186 0.632568V4.26702L38.045 24.3116L38.0525 24.3192L20.879 41.6817L20.8584 41.6608L3.69616 24.3116L3.68112 24.2964L12.1062 15.7786H8.44923L0.0166626 24.304L0.0241835 24.3116L20.8508 45.3675L20.8584 45.3599L41.6587 24.3306L41.6399 24.3116Z" fill="#FE6309"/>
<path d="M18.2111 6.76855V10.403L31.9758 24.3192L20.8865 35.5305L9.78789 24.3116L9.77285 24.2964L18.1979 15.7786H14.541L6.1084 24.304L6.11592 24.3116L19.0496 37.3876L20.8583 39.2163L22.6971 37.3591L35.582 24.3306L18.2111 6.76855Z" fill="#FE6309"/>
<path d="M29.5109 24.3115L22.6426 17.3601L20.8151 15.5125L19.0177 17.3297L12.1137 24.3039L19.0214 31.2877L20.8302 33.1163L22.6652 31.2592L29.5297 24.3306L29.5109 24.3115ZM20.8621 29.4439L15.7857 24.3115L15.7706 24.2963L20.8339 19.1773L25.9104 24.3096L20.8621 29.4439Z" fill="#FE6309"/>
</g>
<defs>
<clipPath id="clip0_14_326">
<rect width="179" height="45" fill="white" transform="translate(0 0.5)"/>
</clipPath>
</defs>
</svg>
