<svg width="85" height="86" viewBox="0 0 85 86" fill="none" xmlns="http://www.w3.org/2000/svg">
<path d="M52.5215 1.54199C55.335 1.58109 58.0193 2.11489 60.526 3.38989C62.736 4.52124 64.538 6.10309 65.7679 8.28334C66.5672 9.72263 67.0916 11.2982 67.3141 12.9294C67.7714 16.0608 67.3089 19.0902 66.2762 22.0525C65.6693 23.7899 64.8295 25.4193 63.92 27.0199C62.067 30.2779 59.6861 33.1016 56.9168 35.6049C53.3639 38.8196 49.4679 41.6333 45.299 43.9952C43.684 44.9073 42.0095 45.6731 40.2084 46.1415C39.105 46.4395 37.9657 46.5837 36.8228 46.5699C35.3183 46.5393 34.1411 45.8542 33.2256 44.6999C32.3803 43.6639 31.9447 42.3536 32.0016 41.0177C32.0116 40.6461 32.0652 40.2769 32.1614 39.9178C32.7063 37.9823 33.4466 36.1285 34.5533 34.4378C35.3991 33.1467 36.4072 32 37.7255 31.1798C39.1918 30.2669 40.7855 29.8767 42.5093 30.2533C43.0483 30.3796 43.5555 30.6154 43.9994 30.946C45.1341 31.7569 45.0746 33.0294 44.5298 33.842C44.063 34.5482 43.5412 35.2164 42.9692 35.8403C42.0002 36.8841 40.9708 37.871 39.9661 38.8808C39.077 39.7741 38.2415 40.7117 37.564 41.7801C37.213 42.3343 36.8891 42.8996 36.7922 43.5651C36.6698 44.3998 37.1033 44.9685 37.9457 45.0467C38.3815 45.0823 38.8202 45.0382 39.2402 44.9166C40.5348 44.5588 41.7367 43.9816 42.9173 43.3594C44.738 42.3964 46.4185 41.2191 48.0564 39.9773C50.042 38.4719 51.9724 36.902 53.7514 35.1561C55.7778 33.1696 57.5841 31.0106 58.9662 28.5193C59.976 26.7003 60.7197 24.7793 61.0504 22.7189C61.3428 20.9041 61.1796 19.1361 60.3389 17.4701C59.9341 16.6467 59.3009 15.9571 58.5148 15.4837C58.1519 15.2652 57.7516 15.1159 57.3342 15.0434C55.8153 14.7739 54.3456 14.9949 52.9014 15.4769C51.3961 15.9801 49.9995 16.7145 48.6421 17.5169C45.696 19.2645 42.7465 21.0112 39.9389 22.979C38.5313 23.965 37.1671 25.0139 35.7875 26.039C34.5414 26.9655 33.3038 27.903 31.9421 28.6604C30.8371 29.2896 29.6411 29.7436 28.3968 30.0059C26.8549 30.3187 25.4337 30.028 24.1281 29.1899C22.7732 28.3204 21.8246 27.127 21.4081 25.5477C21.1429 24.5506 21.2474 23.5621 21.4761 22.5778C21.8101 21.1328 22.4442 19.8238 23.2347 18.5828C25.1897 15.5177 27.6479 12.9175 30.5065 10.6948C34.7429 7.40104 39.4043 4.86464 44.4465 3.02949C47.0352 2.08257 49.7653 1.57966 52.5215 1.54199Z" fill="#E20010"/>
<path d="M17.6681 71.6195C17.6537 70.6573 17.544 69.792 16.9881 69.0415C16.7174 68.6788 16.3426 68.4072 15.9137 68.2629C14.8087 67.8668 13.6833 67.9135 12.586 68.2527C11.7062 68.5247 10.8579 68.8953 9.99685 69.2259C9.82685 69.2888 9.67215 69.3696 9.46645 69.4614C9.061 68.4558 8.66235 67.48 8.245 66.46C8.84935 66.1736 9.41885 65.8812 10.0062 65.6304C11.3594 65.0516 12.7628 64.6546 14.2384 64.5654C15.714 64.4761 17.17 64.5543 18.513 65.27C20.032 66.0741 21.1285 67.2352 21.5875 68.925C21.6537 69.1462 21.6933 69.3745 21.7056 69.605C21.7643 71.7989 21.8433 73.9927 21.8527 76.1866C21.8586 77.686 21.76 79.1862 21.7158 80.6865C21.7079 80.8922 21.6222 81.0872 21.4761 81.2322C20.4264 82.3882 19.142 83.1872 17.6868 83.7235C16.1264 84.2929 14.4646 84.5317 12.807 84.4248C11.277 84.3398 9.95605 83.7133 8.83915 82.6738C7.72225 81.6342 6.94195 80.3788 6.72435 78.8403C6.42685 76.7331 7.0346 74.9048 8.5493 73.4003C9.5234 72.433 10.7236 71.9332 12.076 71.7564C13.572 71.5617 15.0731 71.6136 16.5742 71.6178L17.6681 71.6195ZM17.4718 75.045C17.3836 75.0276 17.2945 75.0154 17.2049 75.0085C16.6949 74.9983 16.1789 74.9804 15.6664 74.9881C15.0518 74.9974 14.4347 75 13.8236 75.0578C13.192 75.1181 12.5792 75.3026 12.0896 75.7242C11.277 76.4246 11.0356 77.3392 11.2336 78.3702C11.4801 79.6452 12.1924 80.536 13.4623 80.9151C14.1171 81.111 14.8104 81.1402 15.4794 81.0001C16.1011 80.8863 16.6811 80.6081 17.1589 80.1943C17.2399 80.1316 17.3064 80.0522 17.354 79.9616C17.4017 79.871 17.4294 79.7712 17.4352 79.669C17.4548 79.2211 17.5126 78.774 17.516 78.326C17.5228 77.3001 17.5075 76.2741 17.499 75.2482C17.4939 75.18 17.4848 75.1122 17.4718 75.045Z" fill="#E20010"/>
<path d="M68.7931 74.9599C65.1466 74.9599 61.5681 74.8817 57.9394 74.9769C57.9581 75.2319 57.9692 75.4733 57.9921 75.7088C58.0856 76.6718 58.293 77.6077 58.7002 78.4908C59.0167 79.2112 59.5082 79.8411 60.1299 80.3234C61.1159 81.0723 62.2413 81.1947 63.4219 81.0425C64.3977 80.9167 65.3064 80.5597 66.2125 80.2002C66.6281 80.0361 67.0404 79.8602 67.4875 79.6774C67.9125 80.5665 68.329 81.4403 68.7625 82.3396C68.6826 82.3974 68.6078 82.462 68.5245 82.5096C66.7565 83.5585 64.8576 84.2343 62.8065 84.4128C60.9365 84.5751 59.1515 84.2683 57.5365 83.2338C56.4366 82.5292 55.6665 81.5338 55.0222 80.4203C54.2287 79.035 53.7482 77.4926 53.6146 75.9017C53.3449 73.0009 53.9609 70.3002 55.4625 67.7995C56.5097 66.0613 58.0729 65.1169 60.0296 64.7914C61.8282 64.4751 63.6808 64.7834 65.28 65.6652C66.1759 66.1505 66.7998 66.9147 67.3141 67.7715C67.9941 68.9011 68.3519 70.1464 68.5236 71.4367C68.663 72.4771 68.7072 73.5302 68.7905 74.5817C68.8007 74.6896 68.7931 74.8018 68.7931 74.9599ZM64.3731 71.6577C64.1614 70.6878 64.0169 69.6967 63.382 68.8748C63.0635 68.4662 62.6163 68.1775 62.1129 68.0554C60.7742 67.7009 59.4286 68.318 58.8532 69.5854C58.6475 70.0367 58.5268 70.5272 58.3772 71.0023C58.31 71.2174 58.2667 71.4409 58.2131 71.6577C58.5727 71.7529 64.005 71.7571 64.3748 71.6602L64.3731 71.6577Z" fill="#E20010"/>
<path d="M44.8715 60.1454L49.2227 59.4722V64.8161C50.1883 64.8739 51.108 64.811 52.0328 64.9105V68.2025C51.0978 68.2178 50.1823 68.1898 49.2278 68.2476C49.2278 68.4329 49.2278 68.5714 49.2278 68.71C49.2198 71.8788 49.213 75.0479 49.2074 78.2172C49.2074 78.7162 49.2473 79.216 49.2924 79.7132C49.3638 80.4782 49.7879 80.9636 50.5291 81.1497C50.938 81.2534 51.3579 81.3121 51.7727 81.3911L52.1892 81.4761V84.2701C52.1424 84.2932 52.0926 84.3098 52.0413 84.3194C50.8062 84.3746 49.5763 84.3423 48.382 83.9794C47.2158 83.6275 46.2434 82.99 45.5838 81.9394C45.209 81.3444 45.0186 80.6754 44.9361 79.9844C44.8863 79.5515 44.8619 79.1162 44.863 78.6805C44.863 72.6625 44.8664 66.645 44.8732 60.6282L44.8715 60.1454Z" fill="#E20010"/>
<path d="M71.1849 60.1487L75.3924 59.4194V60C75.3924 65.4655 75.3947 70.931 75.3992 76.3965C75.3992 77.3969 75.4077 78.3974 75.4154 79.3987C75.4222 80.3864 75.7826 80.8896 76.7261 81.1837C77.0467 81.2723 77.3723 81.3422 77.701 81.3928C77.9016 81.4302 78.1048 81.448 78.3487 81.4778V84.3321C78.3261 84.3509 78.2993 84.364 78.2705 84.3703C77.0754 84.4188 75.8854 84.3992 74.7235 84.0592C74.0194 83.8566 73.3639 83.513 72.7965 83.0494C71.74 82.185 71.3099 81.0264 71.1994 79.72C71.1671 79.3375 71.1713 78.9507 71.1722 78.5665C71.1722 72.5876 71.1764 66.6093 71.1849 60.6315V60.1487Z" fill="#E20010"/>
<path d="M36.4123 84.0796H32.1623C32.1572 83.9019 32.1487 83.7396 32.1478 83.5789C32.1433 81.0255 32.1396 78.4721 32.1368 75.9187C32.1317 73.8787 32.1189 71.8387 32.1198 69.7987C32.1211 69.4288 32.1495 69.0595 32.2048 68.6937C32.2677 68.2764 32.4861 67.9287 32.7896 67.6355C34.459 66.0103 36.459 65.0362 38.7396 64.6163C40.1688 64.3542 41.6336 64.3522 43.0635 64.6103C43.1392 64.6239 43.2148 64.6409 43.2888 64.6596C43.3253 64.669 43.3602 64.6868 43.4307 64.714C42.9479 65.9414 42.3597 67.1144 41.8055 68.2738C41.1434 68.2738 40.5161 68.2543 39.8905 68.2781C38.8101 68.3139 37.7496 68.5781 36.7786 69.0533C36.5032 69.1884 36.4004 69.3567 36.4012 69.6738C36.4131 74.3204 36.416 78.9671 36.4097 83.6138L36.4123 84.0796Z" fill="#E20010"/>
<path d="M29.0275 64.9963C29.0725 71.3645 29.0232 77.6953 29.064 84.0652H24.905C24.8948 83.9114 24.8744 83.7507 24.8744 83.5901C24.8744 79.5866 24.8744 75.5825 24.8744 71.5779C24.8744 69.7427 24.8897 67.9076 24.8973 66.0724C24.8973 65.933 24.8973 65.7936 24.8973 65.6185L29.0275 64.9963Z" fill="#E20010"/>
<path d="M26.775 63.1222C24.7443 63.1171 23.4727 61.0958 24.3151 59.1875C24.8327 58.0171 25.7218 57.5725 27.0045 57.5802C28.7232 57.5946 29.9973 59.304 29.5876 60.9742C29.2604 62.3087 28.1894 63.1256 26.775 63.1222Z" fill="#E20010"/>
</svg>
