<svg width="103" height="102" viewBox="0 0 103 102" fill="none" xmlns="http://www.w3.org/2000/svg">
<path d="M101.146 1.83594H1.75101V100.266H101.146V1.83594Z" fill="#162D4C"/>
<path d="M45.1686 16.5739V16.5239H75.1416V16.5759L45.1686 16.5739Z" fill="#E4B935"/>
<path d="M45.1686 16.574H75.1416C74.915 17.6531 74.6925 18.7333 74.4608 19.8115C73.5736 23.937 72.6837 28.0612 71.791 32.1841C71.4305 33.8599 71.07 35.5368 70.7054 37.2106C70.659 37.4146 70.6796 37.487 70.9114 37.4901C71.7354 37.5023 72.5594 37.4901 73.3834 37.4585C73.7864 37.4347 74.1909 37.4608 74.5875 37.536C75.3085 37.687 75.5093 38.2021 75.0777 38.8008C74.8364 39.1124 74.5226 39.3615 74.1631 39.527C73.3504 39.9422 72.4708 40.1197 71.5757 40.2349C71.1347 40.3019 70.6891 40.336 70.2429 40.3369C70.0699 40.3369 70.0256 40.4165 69.9967 40.5542C69.7221 41.8462 69.445 43.1409 69.1655 44.4383L66.6225 56.3132C66.571 56.5539 66.5195 56.7936 66.471 57.0364C66.4463 57.1731 66.3969 57.2557 66.2393 57.2271C66.1965 57.223 66.1534 57.223 66.1105 57.2271H36.7834C36.429 57.2271 36.4301 57.2271 36.5063 56.8681C37.9744 50.0218 39.4418 43.1756 40.9085 36.3293C41.236 34.8021 41.5646 33.2755 41.8942 31.7495C41.9228 31.6612 41.917 31.5655 41.8777 31.4813C41.44 30.6235 41.3009 29.6922 41.2093 28.7518C40.9755 26.3609 41.5368 24.0771 42.195 21.8107C42.3855 21.1579 43.1024 20.756 43.8842 20.8437C44.1715 20.8753 44.2539 20.7978 44.3075 20.5285C44.5681 19.2392 44.8534 17.9551 45.1315 16.6688C45.141 16.6362 45.1534 16.6044 45.1686 16.574ZM55.3656 37.688C55.4423 37.6798 55.5196 37.6798 55.5963 37.688C56.5377 37.9001 57.0198 37.3493 57.4009 36.6302C57.4441 36.5476 57.4884 36.464 57.5255 36.3793C57.7902 35.7826 57.7892 35.7816 57.302 35.3593C57.2699 35.3294 57.2355 35.3022 57.199 35.2777C56.9858 35.1492 56.9868 35.0115 57.1176 34.8014C57.5228 34.1486 58.115 33.63 58.8188 33.3116C59.5226 32.9931 60.3062 32.8893 61.0697 33.0133C61.3309 33.0483 61.5773 33.1543 61.7815 33.3193C62.451 33.8507 63.1431 34.3516 63.8497 34.835C64.4997 35.292 65.1781 35.708 65.8809 36.0805C66.1414 36.2151 66.1559 36.209 66.1322 35.9315C66.0869 35.4073 66.0343 34.8833 65.9746 34.3597C65.8417 33.1826 65.4822 32.0984 64.7221 31.1528C64.1772 30.4756 63.6592 29.7769 63.103 29.1077C63.0488 29.0501 63.0087 28.981 62.9857 28.9057C62.9626 28.8304 62.9573 28.7509 62.9701 28.6732C63.0937 27.7083 63.0957 27.7022 62.488 26.9392C61.149 25.2583 59.5587 23.818 57.9334 22.4165C57.8377 22.3447 57.7261 22.2964 57.6079 22.2758C56.4842 22.002 55.3346 21.8458 54.178 21.8096C53.5064 21.779 52.8843 21.8525 52.3333 22.2605C51.8832 22.594 51.4063 22.6491 50.8408 22.5563C49.0156 22.2554 47.1812 22.0085 45.3488 21.7515C44.8153 21.677 44.2869 21.5475 43.742 21.574C43.2734 21.5954 43.0128 21.7566 42.8943 22.1391C42.3103 24.0281 41.8643 25.9447 41.9292 27.9388C41.9631 29.7791 42.5783 31.5626 43.6885 33.0388C44.9245 34.6892 46.5972 35.7479 48.5099 36.465C50.7151 37.2892 53.0203 37.5839 55.3604 37.6839L55.3656 37.688ZM55.1596 50.2064C55.0514 50.2768 54.9804 50.3238 54.9083 50.3686C54.0153 50.9235 53.1233 51.4804 52.2251 52.0272C52.0438 52.1373 52.0356 52.1944 52.2045 52.3332C53.6465 53.5113 55.0823 54.6985 56.5212 55.8817C56.5573 55.9123 56.5903 55.9644 56.6665 55.9287C56.6819 55.6655 56.7128 55.3952 56.7087 55.1249C56.7082 54.8197 56.7731 54.518 56.8993 54.2395C57.2999 53.293 57.6831 52.3393 58.0765 51.3897C58.1269 51.2732 58.1498 51.1469 58.1435 51.0204C58.1085 50.1799 58.0755 49.3395 58.0498 48.499C58.0454 48.3469 57.9987 48.199 57.9148 48.0716C57.0043 46.613 56.1 45.1513 55.1864 43.6937C55.1458 43.6358 55.1195 43.5693 55.1095 43.4996C55.0995 43.4298 55.1061 43.3587 55.1287 43.2919C55.2811 42.7706 55.4191 42.2453 55.5706 41.7231C55.6277 41.5188 55.6452 41.3056 55.6221 41.0948C55.5685 40.5195 55.5191 39.9442 55.4789 39.3679C55.4676 39.1762 55.413 39.1129 55.208 39.1119C53.8439 39.1129 52.4831 38.9793 51.1457 38.7131C47.6632 37.9991 44.8565 36.2732 42.8542 33.3285C42.814 33.2704 42.7944 33.1867 42.6873 33.1633C42.676 33.2112 42.6636 33.2581 42.6533 33.305C41.7648 37.4789 40.8766 41.6534 39.9887 45.8286C39.8775 46.3498 39.8775 46.356 40.4069 46.411C40.7489 46.4467 41.0743 46.5549 41.4369 46.4243C43.193 45.799 44.9605 45.2054 46.7218 44.5883C46.8092 44.5485 46.906 44.5337 47.0014 44.5456C47.0968 44.5575 47.1869 44.5956 47.2615 44.6556C49.5996 46.308 51.9426 47.9543 54.2903 49.5944L55.1596 50.2064ZM46.9258 45.5583C46.9258 46.8068 46.9258 48.0379 46.9258 49.2701C46.928 49.4803 46.8863 49.6887 46.8032 49.8821C46.1234 51.4845 45.4518 53.091 44.77 54.6934C44.7312 54.7677 44.7126 54.8505 44.7158 54.934C44.7191 55.0175 44.7441 55.0987 44.7885 55.1698C44.9327 55.4207 45.0604 55.6798 45.1789 55.944C45.2007 56.0108 45.2451 56.0681 45.3045 56.1064C45.364 56.1446 45.4349 56.1615 45.5054 56.1541C47.1452 56.1449 48.7839 56.1541 50.4226 56.1469C50.4937 56.1469 50.5751 56.1796 50.6513 56.097C50.5009 55.791 50.3557 55.4737 50.1929 55.1677C50.1095 55.0205 50.0845 54.8477 50.1229 54.6832C50.5246 52.7391 50.916 50.7919 51.3239 48.8488C51.3651 48.656 51.3239 48.5602 51.1694 48.4531C49.8249 47.5262 48.4828 46.596 47.1431 45.6623C47.0839 45.6001 47.0036 45.5616 46.9175 45.5542L46.9258 45.5583ZM69.6012 39.6892C69.7897 39.6892 69.9782 39.6953 70.1667 39.6892C71.2925 39.6443 72.4038 39.5066 73.475 39.1394C73.8046 39.042 74.1085 38.8738 74.365 38.6468C74.4865 38.5315 74.5967 38.3959 74.5256 38.2214C74.4628 38.0664 74.2929 38.0552 74.1507 38.0542C73.8077 38.0542 73.4627 38.045 73.1207 38.0756C71.6741 38.2124 70.2144 38.1051 68.804 37.7584C66.2949 37.1413 64.0588 35.9693 61.9905 34.4638C61.7222 34.2562 61.4016 34.1253 61.0635 34.0853C60.0984 33.9833 59.26 34.2047 58.6358 34.9962C58.5205 35.1421 58.5174 35.2349 58.6688 35.3675C59.465 36.0662 60.323 36.6927 61.2325 37.2392C63.7972 38.7875 66.5627 39.6872 69.593 39.6851L69.6012 39.6892ZM61.9236 38.5856C61.9504 38.7631 61.9751 38.8916 61.9885 39.0293C62.0307 39.4679 62.1759 39.8942 62.1317 40.341C61.9957 41.7109 61.7011 43.0573 61.5198 44.421C61.3798 45.4828 61.2366 46.5457 61.2943 47.6187C61.3406 48.4857 61.6249 49.267 62.3675 49.7821C63.0679 50.2677 63.8373 50.4156 64.6459 50.0024C64.7088 49.9762 64.7616 49.9308 64.7968 49.8729C64.8319 49.8149 64.8476 49.7475 64.8416 49.6801C64.8383 49.3916 64.8097 49.1039 64.7561 48.8203C64.72 48.6408 64.6613 48.5938 64.4656 48.6285C63.7385 48.7581 63.2389 48.2399 63.381 47.5249C63.5057 46.8965 63.758 46.3111 63.999 45.7225C64.5851 44.3098 65.2814 42.9451 65.8901 41.5405C66.0456 41.1449 66.141 40.7286 66.1734 40.3053C66.1899 40.1666 66.1734 40.0952 65.9983 40.0727C65.7101 40.0311 65.4246 39.9725 65.1434 39.8973C64.0158 39.6043 62.9329 39.1631 61.9236 38.5856Z" fill="#DFAC0F"/>
<path d="M55.8322 69.0152C56.134 69.0632 56.4298 69.1426 56.7149 69.2519C57.6501 69.6385 58.1486 70.3555 58.194 71.3337C58.2784 73.1401 57.3998 74.4671 55.9496 75.4616C55.0175 76.0973 53.911 76.4348 52.7793 76.4286C51.2785 76.4398 49.7768 76.4286 48.2751 76.4286C47.8734 76.4286 47.7827 76.3164 47.8631 75.9308C48.7715 71.5714 49.6803 67.2119 50.5895 62.8524C50.6822 62.4046 50.7955 62.3169 51.2487 62.3169C52.2179 62.3169 53.1871 62.3169 54.1574 62.3169C55.0545 62.3169 55.9393 62.4189 56.7695 62.781C57.6697 63.1737 58.3454 63.7898 58.4422 64.8057C58.5802 66.2551 58.0868 67.474 56.9075 68.3879C56.5717 68.633 56.2114 68.8432 55.8322 69.0152ZM51.8595 74.7813V74.766C52.1767 74.766 52.4939 74.7793 52.8102 74.766C54.3335 74.6936 55.3326 73.8235 55.6076 72.3404C55.8301 71.1348 55.2389 70.3004 54.0245 70.1189C53.2664 70.0077 52.5012 70.0924 51.74 70.0658C51.6143 70.0658 51.6071 70.1352 51.5896 70.2209C51.5051 70.636 51.4176 71.0512 51.33 71.4653C51.1158 72.4853 50.9057 73.5053 50.6842 74.5253C50.6389 74.7293 50.6781 74.8058 50.9088 74.7905C51.224 74.766 51.5422 74.7813 51.8595 74.7813ZM52.7144 68.4155C53.0395 68.4349 53.3659 68.4164 53.6867 68.3604C54.8702 68.0921 55.7735 67.0487 55.8909 65.8104C55.9846 64.8261 55.5469 64.2406 54.5735 64.0427C54.1419 63.955 53.7042 63.9795 53.2695 63.952C52.9708 63.9326 52.8699 64.0223 52.8132 64.3171C52.565 65.6146 52.29 66.9069 52.0098 68.1992C51.9656 68.4032 52.0274 68.4267 52.2004 68.4155C52.3734 68.4043 52.5424 68.4155 52.7144 68.4155Z" fill="white"/>
<path d="M67.8224 67.5015C67.9574 67.17 68.082 66.8895 68.185 66.607C68.214 66.4953 68.2826 66.3977 68.3783 66.3319C68.474 66.2662 68.5904 66.2367 68.7062 66.249C69.1439 66.2581 69.5817 66.249 70.0194 66.249C70.3439 66.249 70.4386 66.3683 70.3768 66.6753C69.8962 69.0274 69.4155 71.3799 68.9348 73.7327C68.886 73.9225 68.8693 74.1189 68.8854 74.3141C68.9297 74.6405 69.0399 74.7558 69.3695 74.7986C69.5755 74.8251 69.662 74.9373 69.627 75.1291C69.5683 75.4545 69.5003 75.7788 69.421 76.1001C69.404 76.1982 69.3514 76.2868 69.273 76.3492C69.1947 76.4116 69.096 76.4434 68.9956 76.4388C68.5834 76.4578 68.1706 76.4179 67.7699 76.3204C67.1365 76.1552 66.7904 75.7503 66.71 75.0964C66.7008 75.022 66.6977 74.9465 66.6905 74.8588C66.5792 74.8853 66.5401 74.9771 66.4845 75.0403C65.2073 76.4214 63.6252 76.911 61.7815 76.5938C60.5393 76.3796 59.7668 75.6115 59.4887 74.3845C59.2508 73.339 59.3785 72.3067 59.5917 71.2776C59.843 70.0536 60.2663 68.8999 61.0337 67.882C62.3593 66.1082 64.4935 65.7318 66.1167 66.1347C66.8676 66.3275 67.4218 66.7783 67.8224 67.5015ZM61.7454 73.1574C61.7456 73.3875 61.7656 73.6172 61.8052 73.8439C61.9174 74.5212 62.2944 74.8965 62.9783 75.0097C64.3173 75.2321 65.5987 74.6558 66.2651 73.4665C66.926 72.2688 67.2483 70.9167 67.1982 69.5527C67.1746 68.5878 66.7121 67.9891 65.8922 67.7514C65.4111 67.6207 64.906 67.6015 64.4162 67.6953C63.549 67.8402 63.0432 68.4154 62.6889 69.1478C62.075 70.4146 61.8567 71.7743 61.7454 73.1574Z" fill="white"/>
<path d="M87.686 62.4036C87.401 63.7772 87.1153 65.148 86.829 66.5162C86.5447 67.8861 86.2615 69.2559 85.9751 70.635C86.109 70.6268 86.1523 70.533 86.2151 70.4718C87.5016 69.21 88.7901 67.9503 90.0673 66.6794C90.1974 66.5389 90.3571 66.4285 90.5351 66.356C90.7131 66.2836 90.9051 66.2508 91.0973 66.2602C91.568 66.2775 92.0408 66.2602 92.5125 66.2694C92.6155 66.2694 92.7453 66.2418 92.7906 66.3438C92.836 66.4458 92.7103 66.5172 92.6392 66.5825C91.0599 68.0547 89.4758 69.5242 87.8868 70.9909C87.7199 71.145 87.7199 71.2408 87.8384 71.4224C88.8231 72.933 89.7954 74.4518 90.7749 75.9675C90.8213 76.0389 90.8676 76.1113 90.9078 76.1848C90.9923 76.3378 90.9459 76.4449 90.7708 76.4459C90.0241 76.4459 89.2773 76.453 88.5316 76.4367C88.3081 76.4367 88.1793 76.2562 88.0701 76.0716C87.3292 74.8108 86.5856 73.5528 85.8392 72.2976C85.7938 72.2211 85.7722 72.1231 85.6579 72.0701C85.4457 73.0901 85.2366 74.0968 85.0255 75.1056C84.9595 75.4218 84.8967 75.738 84.8246 76.0522C84.7525 76.3663 84.632 76.451 84.324 76.453C83.8441 76.453 83.363 76.453 82.882 76.453C82.4536 76.453 82.3732 76.3592 82.4587 75.9522C82.7224 74.6905 82.9902 73.4287 83.2539 72.166C83.832 69.4113 84.4057 66.6607 84.975 63.9142C84.9839 63.8442 85.011 63.7778 85.0536 63.7213C85.0962 63.6648 85.1529 63.6202 85.2181 63.5919C85.9545 63.2308 86.6848 62.8575 87.4182 62.4913C87.4962 62.4354 87.5897 62.4048 87.686 62.4036Z" fill="white"/>
<path d="M74.9974 67.8954C75.3546 67.4219 75.7666 66.9915 76.2252 66.6132C77.3077 65.736 79.5016 65.8727 80.5192 66.7938C81.3432 67.5414 81.5667 68.4992 81.3886 69.5376C81.1568 70.8829 80.8488 72.2151 80.58 73.5543C80.5213 73.845 80.4657 74.1398 80.547 74.4376C80.6037 74.6467 80.6943 74.815 80.959 74.813C81.1815 74.813 81.268 74.9476 81.231 75.1506C81.1723 75.475 81.1063 75.8004 81.0301 76.1217C81.0126 76.2159 80.9612 76.3006 80.8854 76.3602C80.8097 76.4198 80.7148 76.4503 80.6181 76.446C80.2062 76.4683 79.7934 76.4267 79.3945 76.3226C78.4675 76.0645 78.0102 75.4046 78.0555 74.3846C78.0853 73.692 78.2903 73.0311 78.4129 72.3558C78.5797 71.4378 78.8589 70.5402 78.9104 69.6018C78.9222 69.4157 78.9222 69.229 78.9104 69.0429C78.8383 68.0127 78.1894 67.521 77.1686 67.6924C76.8498 67.7434 76.5455 67.8607 76.2756 68.0365C76.0058 68.2123 75.7766 68.4426 75.603 68.7124C75.1437 69.3795 74.949 70.1404 74.7863 70.9176C74.4312 72.6108 74.0731 74.304 73.712 75.9972C73.6357 76.3542 73.5132 76.447 73.1444 76.4481C72.6469 76.4481 72.1484 76.4481 71.6509 76.4481C71.3347 76.4481 71.2389 76.3195 71.2987 76.0115C71.7793 73.6852 72.2621 71.3589 72.7469 69.0327C72.8004 68.7756 72.8643 68.5227 72.786 68.2534C72.7242 68.0494 72.6129 67.9168 72.374 67.8974C72.0866 67.8739 72.0248 67.775 72.0825 67.4894C72.1402 67.2038 72.1979 66.9233 72.2576 66.6418C72.2706 66.5345 72.3235 66.4359 72.406 66.3652C72.4884 66.2945 72.5945 66.2567 72.7036 66.2593C73.1242 66.2326 73.5464 66.2733 73.954 66.3797C74.6328 66.5745 74.916 66.9182 74.984 67.6138C74.984 67.6873 74.984 67.7607 74.9974 67.8954Z" fill="white"/>
<path d="M14.8413 68.389H16.3966C17.1691 68.389 17.9416 68.389 18.7141 68.389C19.0859 68.389 19.1755 68.4971 19.1024 68.8582C19.0447 69.1407 18.9829 69.4223 18.919 69.7038C18.8377 70.0587 18.713 70.1567 18.3227 70.1567C17.1382 70.1567 15.9537 70.1567 14.7702 70.1485C14.5446 70.1485 14.4509 70.1913 14.4025 70.4331C14.0441 72.2303 13.663 74.0225 13.2911 75.8177C13.1881 76.3277 13.1057 76.397 12.5701 76.397C12.0809 76.397 11.5916 76.397 11.1034 76.397C10.7491 76.397 10.6574 76.2838 10.7295 75.939C11.1621 73.8623 11.5957 71.7863 12.0304 69.7109C12.5042 67.4431 12.9766 65.1757 13.4477 62.9085C13.563 62.3537 13.6403 62.2863 14.2192 62.2874L20.9142 62.2996C21.3921 62.2996 21.4642 62.3863 21.3663 62.8382C21.3086 63.1034 21.2541 63.3696 21.1902 63.6338C21.1109 63.9632 20.9935 64.055 20.6515 64.055C19.1065 64.055 17.5615 64.055 16.0165 64.055C15.8105 64.055 15.724 64.0928 15.6807 64.31C15.4129 65.6615 15.1266 67.014 14.8413 68.389Z" fill="white"/>
<path d="M35.1024 76.6531C34.2872 76.6456 33.4785 76.5078 32.7076 76.2451C32.436 76.1614 32.1886 76.0141 31.9866 75.8157C31.7806 75.6025 31.7806 75.4077 31.9609 75.1792C32.0783 75.0333 32.2091 74.8987 32.3348 74.7579C32.6438 74.4081 32.6953 74.3958 33.1588 74.5539C33.8015 74.7681 34.4483 74.9619 35.1312 74.9956C35.7358 75.0272 36.3302 75.0038 36.9008 74.7732C37.1254 74.686 37.3246 74.5447 37.4803 74.3622C37.636 74.1797 37.7434 73.9616 37.7928 73.7277C37.8885 73.3595 37.7804 73.1055 37.4539 72.9015C37.1064 72.6995 36.7348 72.5412 36.3477 72.4303C35.9089 72.2895 35.4711 72.1375 35.0251 72.0223C33.4286 71.601 33.0445 70.4086 33.3565 69.051C33.7284 67.4343 35.02 66.297 36.737 66.0543C37.9596 65.8839 39.1668 65.9523 40.3183 66.4551C40.5497 66.5457 40.7633 66.6755 40.9497 66.8386C41.1413 67.0202 41.1557 67.1712 40.9909 67.3721C40.7849 67.6149 40.5707 67.8433 40.3657 68.0861C40.2627 68.2054 40.1504 68.1973 40.0186 68.1595C39.517 68.0178 39.038 67.8005 38.522 67.7077C37.9339 67.6057 37.3447 67.57 36.7638 67.7352C36.5133 67.8007 36.284 67.929 36.098 68.1076C35.9121 68.2862 35.7756 68.5093 35.7019 68.7552C35.5165 69.3009 35.7194 69.6906 36.2735 69.8629C36.9595 70.0761 37.6486 70.2781 38.3335 70.4851C38.6798 70.5804 39.0129 70.7174 39.3254 70.8931C39.9043 71.2348 40.1906 71.7479 40.2246 72.4038C40.3163 74.1643 39.3594 75.5607 37.596 76.2461C36.839 76.5399 36.05 76.6562 35.1024 76.6531Z" fill="white"/>
<path d="M43.7111 67.7779C43.397 67.7779 43.0797 67.7779 42.7635 67.7779C42.3969 67.7779 42.3155 67.6831 42.3855 67.3352C42.436 67.0853 42.4885 66.8365 42.5493 66.5896C42.5664 66.4874 42.6211 66.3951 42.7029 66.3305C42.7847 66.2659 42.8878 66.2336 42.9922 66.2397C43.2754 66.2397 43.5597 66.2234 43.8419 66.2397C44.0315 66.253 44.0891 66.1816 44.119 66.0082C44.1973 65.5492 44.2982 65.0902 44.3868 64.6343C44.4033 64.5506 44.4105 64.4741 44.5042 64.4303C45.3519 64.008 46.1986 63.5816 47.07 63.144C47.0926 63.4184 47.003 63.6479 46.9587 63.8805C46.8238 64.5945 46.6765 65.2952 46.5241 66.0011C46.4839 66.1857 46.5117 66.2561 46.7249 66.2449C47.0751 66.2275 47.4284 66.2367 47.7796 66.2449C48.0639 66.25 48.1525 66.3519 48.102 66.6304C48.0516 66.9089 47.9908 67.1618 47.9259 67.425C47.861 67.6882 47.6962 67.7891 47.4377 67.7871C47.0689 67.7871 46.6992 67.7871 46.3304 67.7871C46.1986 67.7871 46.1316 67.8167 46.1028 67.9554C45.7203 69.8526 45.3344 71.7484 44.9451 73.6429C44.8978 73.8602 44.9088 74.086 44.977 74.2978C45.029 74.443 45.1263 74.5682 45.2547 74.6553C45.3832 74.7424 45.5362 74.7868 45.6918 74.7823C46.3727 74.7996 46.3788 74.8057 46.2491 75.4698C46.2089 75.6738 46.1636 75.8849 46.1152 76.0909C46.101 76.1852 46.0527 76.2711 45.9794 76.3328C45.9061 76.3945 45.8127 76.4278 45.7165 76.4265C45.1686 76.4398 44.6155 76.4755 44.0685 76.3796C42.9973 76.1899 42.4669 75.5636 42.4484 74.4742C42.436 73.7602 42.6327 73.0799 42.7738 72.3904C43.0828 70.8777 43.4011 69.3661 43.7142 67.8534C43.7166 67.8282 43.7156 67.8028 43.7111 67.7779Z" fill="white"/>
<path d="M29.4899 67.3781C29.5897 67.2514 29.6959 67.1299 29.8082 67.0139C30.5776 66.2918 31.518 66.05 32.5501 66.0694C32.7561 66.0694 32.8457 66.1347 32.79 66.3642C32.6788 66.8171 32.5933 67.2761 32.4944 67.732C32.4069 68.14 32.272 68.2074 31.861 68.1574C30.8073 68.0299 29.6547 68.3889 29.3117 69.8914C28.8544 71.9008 28.4167 73.9153 27.9727 75.9277C27.8697 76.4082 27.7791 76.4816 27.2765 76.4806C26.8222 76.4806 26.367 76.4806 25.9127 76.4806C25.5574 76.4806 25.4698 76.3674 25.545 76.0206C26.0511 73.6909 26.5579 71.3619 27.0653 69.0335C27.1197 68.8281 27.1467 68.6166 27.1456 68.4042C27.1292 68.0656 27.0056 67.9248 26.6626 67.8697C26.4566 67.8371 26.3598 67.7228 26.3999 67.5148C26.4586 67.2088 26.5173 66.9028 26.5874 66.5968C26.6018 66.4938 26.6539 66.3997 26.7339 66.3323C26.8139 66.265 26.9161 66.2291 27.021 66.2316C27.5525 66.2234 28.085 66.2316 28.601 66.3877C29.081 66.5325 29.3756 66.8385 29.4168 67.3546L29.4899 67.3781Z" fill="white"/>
<path d="M20.4795 74.6988C20.5011 73.9716 20.7133 73.2769 20.8658 72.5731C21.285 70.6351 21.7155 68.6971 22.143 66.7591C22.2212 66.4031 22.349 66.3062 22.7095 66.3042C23.1901 66.3042 23.6708 66.3042 24.1515 66.3042C24.513 66.3042 24.6005 66.4062 24.5253 66.752C24.0193 69.0735 23.5115 71.3943 23.002 73.7145C22.9322 73.9956 22.9069 74.2856 22.9268 74.5744C22.9577 74.8998 23.0741 75.0232 23.3913 75.0701C23.5808 75.0987 23.6684 75.2098 23.6365 75.3883C23.5767 75.7229 23.5087 76.0554 23.4305 76.3849C23.4109 76.473 23.3611 76.5516 23.2896 76.6074C23.218 76.6633 23.1291 76.6927 23.038 76.6909C22.523 76.7072 22.008 76.6664 21.5239 76.4634C20.806 76.1676 20.461 75.5699 20.4795 74.6988Z" fill="white"/>
<path d="M56.4636 82.6669C57.3329 83.1555 57.4091 84.1357 56.6696 84.8426C56.1298 85.3628 54.9515 85.5301 54.282 85.1833C54.1259 85.1089 53.9945 84.9919 53.9033 84.8461C53.8121 84.7002 53.7648 84.5316 53.767 84.3601C53.7468 84.0657 53.8105 83.7716 53.9509 83.5114C54.0913 83.2511 54.3028 83.0352 54.5611 82.8883C54.6899 82.8087 54.831 82.7485 54.9649 82.6843C54.9649 82.6649 54.9649 82.6414 54.9567 82.6373C54.2243 82.262 54.3871 81.5735 54.7702 81.0339C54.9639 80.7809 55.2415 80.6036 55.5541 80.5331C55.9038 80.4417 56.2695 80.4277 56.6253 80.4923C56.9672 80.5484 57.2804 80.6891 57.3864 81.0522C57.4512 81.2457 57.4648 81.4524 57.4261 81.6525C57.3873 81.8527 57.2974 82.0397 57.165 82.1957C56.9827 82.4078 56.7417 82.5353 56.4636 82.6669ZM54.6446 84.1051C54.637 84.2505 54.684 84.3935 54.7766 84.5066C54.8693 84.6196 55.001 84.6946 55.1462 84.7171C55.827 84.862 56.4852 84.1724 56.3152 83.4931C56.2879 83.3588 56.2145 83.238 56.1075 83.1512C56.0005 83.0644 55.8665 83.0169 55.7281 83.0168C55.1482 82.9923 54.6425 83.4982 54.6446 84.1051ZM56.0691 81.0777C55.9706 81.0771 55.8731 81.0956 55.7819 81.1323C55.6907 81.169 55.6077 81.2232 55.5377 81.2917C55.4677 81.3602 55.412 81.4417 55.3738 81.5315C55.3356 81.6213 55.3156 81.7177 55.3151 81.8152C55.3109 81.8829 55.3205 81.9508 55.3431 82.0149C55.3658 82.0789 55.4011 82.1378 55.4471 82.1882C55.493 82.2385 55.5487 82.2793 55.6107 82.3081C55.6728 82.3369 55.74 82.3531 55.8085 82.3558C56.1844 82.3619 56.581 81.9478 56.5892 81.549C56.5944 81.2695 56.3843 81.0798 56.0691 81.0777Z" fill="white"/>
<path d="M61.2273 81.4102C61.2061 81.1832 61.1099 80.9693 60.9537 80.8017C60.7976 80.6342 60.59 80.5222 60.3631 80.483C60.0406 80.4259 59.7087 80.4516 59.3991 80.5575C58.5112 80.8747 58.1888 81.5908 58.1054 82.4363C58.0179 83.3462 58.5514 83.8154 59.4722 83.7093C59.8203 83.6685 60.0603 83.4757 60.3075 83.2503C60.2833 83.5472 60.1884 83.8342 60.0305 84.0877C59.7637 84.5651 59.3651 84.8078 58.8006 84.714C58.6136 84.6928 58.4291 84.6538 58.2496 84.5977C57.9406 84.4825 57.9334 84.7528 57.8458 84.8925C57.7367 85.0669 57.9272 85.1047 58.0282 85.1536C58.88 85.5728 59.8152 85.3923 60.3971 84.6273C61.1264 83.6818 61.3818 82.5853 61.2273 81.4102ZM60.4898 81.8621C60.4522 82.1491 60.3588 82.4262 60.2148 82.6781C60.0521 82.9423 59.8286 83.1014 59.5 83.0861C59.088 83.0759 58.9078 82.8933 58.917 82.4261C58.936 82.1491 59.0088 81.8783 59.1313 81.6285C59.2082 81.4568 59.3361 81.3124 59.498 81.2144C59.7379 81.0767 60.0026 81.0022 60.2509 81.1593C60.4991 81.3164 60.5362 81.5867 60.4898 81.8621Z" fill="white"/>
<path d="M63.551 84.15H61.7279C61.4756 84.15 61.4271 84.0715 61.5425 83.844C61.5883 83.7632 61.6444 83.6884 61.7094 83.6217C62.5426 82.6751 63.3893 81.7398 64.2061 80.78C64.4461 80.4974 64.7211 80.527 65.0188 80.5423C65.1867 80.5505 65.1218 80.6882 65.1022 80.7779C64.9566 81.4838 64.8097 82.1889 64.6614 82.8934C64.6361 83.0526 64.6017 83.2103 64.5584 83.3657C64.4997 83.5452 64.58 83.5554 64.7283 83.5635C64.8447 83.5697 65.0517 83.4615 65.0466 83.7165C65.0394 84.0633 64.9632 84.1735 64.7015 84.146C64.4399 84.1184 64.3483 84.2214 64.3318 84.452C64.3199 84.5358 64.3031 84.6189 64.2813 84.7008C64.1526 85.3251 64.1526 85.32 63.5088 85.2853C63.3491 85.2761 63.3203 85.2129 63.3491 85.0813C63.4161 84.7824 63.4789 84.4836 63.551 84.15ZM64.0331 81.8204L62.5653 83.5544C62.9382 83.5544 63.242 83.5544 63.5459 83.5544C63.5648 83.5569 63.5841 83.5556 63.6025 83.5504C63.6209 83.5452 63.638 83.5363 63.6527 83.5242C63.6674 83.5121 63.6794 83.4971 63.688 83.4802C63.6966 83.4633 63.7015 83.4447 63.7024 83.4258C63.8054 82.9158 63.9115 82.4038 64.032 81.8193L64.0331 81.8204Z" fill="white"/>
<path d="M34.1703 85.3415C33.777 85.3409 33.3877 85.2647 33.0239 85.1171C32.9332 85.0783 32.755 85.0548 32.8364 84.9131C32.9178 84.7713 32.9322 84.4959 33.2226 84.5642C33.6204 84.6688 34.0307 84.7189 34.4422 84.7132C34.6585 84.7081 34.8704 84.6518 35.0602 84.5489C35.5391 84.2837 35.5566 83.7778 35.0828 83.5014C34.8497 83.3788 34.6089 83.2711 34.3618 83.1791C33.3452 82.7456 33.1567 81.7633 33.9632 81.0024C34.6121 80.3904 35.3939 80.3384 36.221 80.5485C36.2951 80.5679 36.3672 80.5944 36.4404 80.6189C36.8328 80.7525 36.84 80.781 36.6258 81.1166C36.6147 81.1412 36.5987 81.1634 36.5789 81.1819C36.5591 81.2003 36.5357 81.2147 36.5103 81.2242C36.4848 81.2337 36.4577 81.2381 36.4305 81.2371C36.4033 81.2362 36.3765 81.2299 36.3518 81.2186C35.9497 81.0946 35.5272 81.0488 35.1076 81.084C34.9652 81.0927 34.8271 81.1349 34.7044 81.2069C34.5817 81.2789 34.4781 81.3787 34.402 81.4981C34.196 81.8296 34.2722 82.1305 34.6235 82.3008C34.8614 82.4161 35.1127 82.5048 35.3558 82.6068C36.4043 83.0475 36.5526 84.2062 35.6524 84.9018C35.2775 85.1874 34.7821 85.3384 34.1703 85.3415Z" fill="white"/>
<path d="M40.2483 82.3629C40.4883 82.1069 40.6891 81.8652 41.0239 81.7917C41.9313 81.5939 42.5575 82.1936 42.3721 83.0932C42.2856 83.5165 42.194 83.9388 42.1116 84.3631C42.0827 84.5141 42.0652 84.6498 42.2702 84.7334C42.4309 84.7987 42.2918 84.9568 42.2867 85.073C42.2887 85.0984 42.2853 85.1239 42.2768 85.1479C42.2683 85.172 42.2549 85.194 42.2374 85.2126C42.2198 85.2312 42.1986 85.246 42.175 85.256C42.1514 85.2661 42.1259 85.2711 42.1002 85.2709C41.5378 85.3342 41.1856 84.9761 41.2845 84.4213C41.3586 84.0041 41.4493 83.59 41.5317 83.1738C41.5467 83.1067 41.556 83.0385 41.5595 82.9698C41.5667 82.7281 41.5595 82.4833 41.3009 82.3578C41.0785 82.2487 40.7293 82.3415 40.5295 82.5618C40.3297 82.7821 40.238 83.0718 40.1762 83.3676C40.0567 83.9317 39.9331 84.4947 39.8208 85.0608C39.8197 85.0921 39.8119 85.1229 39.798 85.151C39.7841 85.1792 39.7644 85.2042 39.7401 85.2243C39.7158 85.2444 39.6875 85.2592 39.6571 85.2678C39.6266 85.2763 39.5947 85.2784 39.5633 85.274C38.9608 85.2883 38.9618 85.2934 39.0834 84.7089C39.2173 84.0609 39.3501 83.4132 39.482 82.7658C39.5139 82.6077 39.5592 82.4404 39.3233 82.3813C39.2203 82.3548 39.243 82.2579 39.2698 82.1905C39.3172 82.0732 39.2585 81.9029 39.4397 81.8519C39.5269 81.8246 39.6191 81.8166 39.7098 81.8284C39.8005 81.8402 39.8875 81.8716 39.9646 81.9203C40.0417 81.9691 40.107 82.034 40.1561 82.1104C40.2051 82.1869 40.2366 82.2731 40.2483 82.3629Z" fill="white"/>
<path d="M47.9681 83.8378C47.7457 83.8378 47.5211 83.849 47.2997 83.8378C47.1349 83.8276 47.0937 83.8969 47.0937 84.0418C47.072 84.5783 47.3646 84.8629 47.9012 84.7976C48.1219 84.7701 48.3393 84.7209 48.5501 84.6507C48.7139 84.5967 48.7746 84.6507 48.8395 84.7884C48.9044 84.9261 48.8756 85.0322 48.7365 85.1016C48.3132 85.3144 47.8364 85.4002 47.3646 85.3484C46.5663 85.2709 46.2048 84.8129 46.28 84.0173C46.3123 83.585 46.4273 83.1627 46.6188 82.7729C47.0133 81.9947 47.7518 81.6356 48.5985 81.8039C49.0908 81.9059 49.3813 82.2252 49.406 82.7219C49.4143 82.8746 49.4039 83.0277 49.3751 83.1778C49.2721 83.6695 49.0661 83.8357 48.5604 83.8459C48.3637 83.8459 48.1659 83.8459 47.9692 83.8459L47.9681 83.8378ZM47.2296 83.2798H48.3286C48.3707 83.2848 48.4134 83.2779 48.4517 83.2598C48.4899 83.2418 48.5223 83.2133 48.5449 83.1778C48.6562 82.9891 48.6036 82.5934 48.4419 82.4384C48.2802 82.2833 48.0392 82.2711 47.8002 82.4057C47.4655 82.5924 47.3429 82.9259 47.2296 83.2798Z" fill="white"/>
<path d="M24.2431 62.4241C24.5171 62.4241 24.7911 62.418 25.0671 62.4241C25.3164 62.4312 25.4142 62.5445 25.3668 62.7811C25.2597 63.3129 25.1464 63.8426 25.0269 64.3703C24.9641 64.6426 24.8209 64.7538 24.5325 64.7558C24.0175 64.7558 23.5025 64.7558 22.9875 64.7558C22.6662 64.7507 22.5755 64.6293 22.6446 64.3193C22.7476 63.8225 22.8588 63.3258 22.9711 62.8311C23.038 62.5353 23.1709 62.4302 23.4706 62.4231C23.7271 62.4231 23.9856 62.4231 24.2411 62.4231L24.2431 62.4241Z" fill="white"/>
<path d="M52.3868 81.5153C52.1087 81.6296 51.8595 81.7326 51.6081 81.8316C51.5463 81.856 51.4567 81.8989 51.4186 81.8744C51.3445 81.8275 51.4032 81.7346 51.4073 81.6612C51.4227 81.396 51.5597 81.242 51.8193 81.1451C52.291 80.9656 52.7463 80.7524 53.2129 80.5555C53.2809 80.526 53.3561 80.4535 53.4189 80.4964C53.4817 80.5392 53.4282 80.6382 53.4189 80.7075C53.1233 82.1457 52.8225 83.5829 52.53 85.0211C52.4909 85.2138 52.4043 85.2832 52.2014 85.2801C51.6153 85.272 51.6195 85.2801 51.74 84.7141C51.9542 83.7104 52.1623 82.7047 52.3724 81.7C52.3796 81.652 52.3786 81.6 52.3868 81.5153Z" fill="white"/>
<path d="M43.0447 84.1214C43.0553 83.6528 43.1685 83.192 43.3764 82.7709C43.8059 81.8835 44.9513 81.4847 45.8257 81.9213C45.937 81.9774 46.144 82.0059 46.0709 82.2089C45.9874 82.4353 45.7845 82.5322 45.5847 82.4384C44.7968 82.0712 44.2395 82.5333 44.0284 83.184C43.9149 83.5049 43.8632 83.8439 43.8759 84.1836C43.9027 84.6059 44.1674 84.8303 44.5969 84.7956C44.8008 84.769 45.0006 84.7183 45.1923 84.6447C45.2953 84.611 45.388 84.5784 45.4405 84.7201C45.4838 84.8374 45.5672 84.9394 45.4261 85.0588C44.9925 85.425 43.8739 85.4535 43.4279 85.1006C43.1024 84.8497 43.0365 84.4988 43.0447 84.1214Z" fill="white"/>
<path d="M36.9368 84.5039C37.0316 84.0358 37.1428 83.4839 37.2592 82.924C37.319 82.6333 37.389 82.3446 37.4405 82.0529C37.4413 82.0215 37.4489 81.9907 37.4626 81.9624C37.4764 81.9341 37.496 81.909 37.5202 81.8888C37.5444 81.8686 37.5727 81.8537 37.6032 81.845C37.6337 81.8364 37.6656 81.8342 37.697 81.8387C38.3057 81.8203 38.3026 81.8152 38.1811 82.3966C38.0462 83.0443 37.9123 83.691 37.7835 84.3397C37.7526 84.4968 37.7227 84.6457 37.9442 84.7304C38.1008 84.7895 37.9679 84.9344 37.9627 85.0476C37.9576 85.1608 37.9267 85.2434 37.7959 85.2689C37.3334 85.3587 36.9368 85.0496 36.9368 84.5039Z" fill="white"/>
<path d="M38.1862 80.3832C38.2892 80.3832 38.3685 80.3832 38.4447 80.3832C38.521 80.3832 38.59 80.4158 38.5745 80.5015C38.5395 80.6923 38.4962 80.881 38.4489 81.0686C38.4303 81.14 38.3644 81.1645 38.2923 81.1778C37.6846 81.2859 37.6146 81.2012 37.7382 80.6107C37.801 80.2904 38.0338 80.4107 38.1862 80.3832Z" fill="white"/>
<path d="M55.3604 37.684C53.0203 37.582 50.7151 37.2892 48.5078 36.46C46.5951 35.746 44.9224 34.6841 43.6864 33.0338C42.5762 31.5576 41.961 29.7741 41.9272 27.9338C41.8664 25.9397 42.3083 24.0231 42.8923 22.1341C43.0107 21.7516 43.2713 21.5904 43.74 21.569C44.2848 21.5425 44.8132 21.671 45.3468 21.7465C47.1791 22.0035 49.0136 22.2503 50.8387 22.5512C51.4032 22.6441 51.8811 22.589 52.3312 22.2554C52.8823 21.8474 53.5044 21.774 54.1759 21.8046C55.3332 21.8433 56.4831 22.0023 57.6069 22.2789C57.7251 22.2996 57.8367 22.3478 57.9324 22.4197C59.5577 23.8211 61.1449 25.2614 62.487 26.9423C63.0947 27.7033 63.0926 27.7094 62.969 28.6763C62.9563 28.754 62.9616 28.8335 62.9846 28.9088C63.0077 28.9842 63.0478 29.0532 63.1019 29.1109C63.6581 29.78 64.1762 30.4787 64.7211 31.156C65.4812 32.1015 65.8407 33.1858 65.9736 34.3628C66.0333 34.8858 66.0858 35.4097 66.1311 35.9347C66.1548 36.2121 66.1404 36.2182 65.8798 36.0836C65.177 35.7111 64.4986 35.2951 63.8487 34.8382C63.1421 34.3547 62.4499 33.8539 61.7804 33.3224C61.5762 33.1574 61.3299 33.0515 61.0687 33.0164C60.3051 32.8924 59.5216 32.9963 58.8178 33.3147C58.114 33.6331 57.5218 34.1517 57.1166 34.8045C56.9858 35.0146 56.9847 35.1523 57.198 35.2808C57.2344 35.3053 57.2689 35.3326 57.301 35.3624C57.7881 35.7806 57.7892 35.7817 57.5245 36.3824C57.4874 36.4671 57.4431 36.5507 57.3998 36.6334C57.0187 37.3474 56.5367 37.9033 55.5953 37.6911C55.5175 37.6802 55.4387 37.6779 55.3604 37.684ZM57.8572 28.7885L56.4656 27.2422C56.3492 27.1127 56.2854 27.2422 56.2174 27.2973C55.5129 27.9052 54.8097 28.5152 54.108 29.1272C54.0482 29.1792 53.9596 29.2139 53.9473 29.3261L57.8572 28.7885Z" fill="#162D4C"/>
<path d="M55.1514 50.2024L54.2851 49.5904C51.9409 47.9462 49.5979 46.3009 47.2564 44.6546C47.1818 44.5946 47.0916 44.5565 46.9963 44.5446C46.9009 44.5327 46.804 44.5475 46.7167 44.5873C44.9554 45.1993 43.1879 45.794 41.4318 46.4233C41.0661 46.5539 40.7406 46.4458 40.4018 46.4101C39.8723 46.355 39.8723 46.3489 39.9836 45.8276C40.8694 41.6504 41.7555 37.4745 42.642 33.3C42.6523 33.2531 42.6647 33.2061 42.676 33.1582C42.779 33.1817 42.8027 33.2653 42.8429 33.3234C44.8452 36.2682 47.6519 37.9981 51.1344 38.708C52.4717 38.9742 53.8326 39.1078 55.1967 39.1068C55.4027 39.1068 55.4562 39.1711 55.4676 39.3629C55.5036 39.9392 55.5572 40.5144 55.6107 41.0897C55.6338 41.3005 55.6164 41.5137 55.5592 41.718C55.4078 42.2403 55.2698 42.7656 55.1174 43.2868C55.0948 43.3536 55.0882 43.4247 55.0982 43.4945C55.1082 43.5643 55.1345 43.6308 55.1751 43.6887C56.0887 45.1463 56.993 46.6079 57.9035 48.0665C57.9874 48.194 58.0341 48.3419 58.0385 48.4939C58.0642 49.3344 58.0972 50.1749 58.1322 51.0154C58.1385 51.1419 58.1156 51.2682 58.0652 51.3846C57.6718 52.3342 57.2886 53.2879 56.8879 54.2345C56.7618 54.5129 56.6969 54.8147 56.6974 55.1198C56.6974 55.3901 56.6706 55.6604 56.6552 55.9236C56.5789 55.9593 56.546 55.9073 56.5099 55.8767C55.0679 54.6935 53.6362 53.5062 52.1932 52.3281C52.0243 52.1904 52.0325 52.1333 52.2138 52.0221C53.112 51.4754 54.0039 50.9185 54.897 50.3636C54.9721 50.3197 55.0432 50.2728 55.1514 50.2024Z" fill="#162D4C"/>
<path d="M46.9175 45.5542C47.0017 45.5627 47.08 45.6011 47.1379 45.6623C48.4804 46.5926 49.8225 47.5218 51.1642 48.45C51.3208 48.5571 51.3599 48.654 51.3187 48.8457C50.9067 50.7837 50.5194 52.736 50.1177 54.6801C50.0794 54.8446 50.1043 55.0174 50.1878 55.1646C50.3505 55.4706 50.4968 55.7858 50.6461 56.0939C50.5699 56.1765 50.4885 56.1438 50.4174 56.1438C48.7787 56.1438 47.14 56.1438 45.5002 56.151C45.4297 56.1584 45.3588 56.1415 45.2994 56.1033C45.2399 56.065 45.1956 56.0077 45.1737 55.9409C45.0553 55.6777 44.9276 55.4176 44.7834 55.1667C44.739 55.0956 44.7139 55.0144 44.7107 54.9309C44.7074 54.8474 44.7261 54.7646 44.7648 54.6903C45.4467 53.0879 46.1182 51.4814 46.798 49.879C46.8811 49.6856 46.9228 49.4772 46.9206 49.267C46.9134 48.0338 46.9175 46.8027 46.9175 45.5542Z" fill="#162D4C"/>
<path d="M69.593 39.685C66.5627 39.685 63.7972 38.7874 61.2263 37.2371C60.3168 36.6905 59.4588 36.0641 58.6626 35.3654C58.5112 35.2328 58.5143 35.1399 58.6296 34.9941C59.2538 34.2026 60.0923 33.9822 61.0574 34.0832C61.3955 34.1232 61.7161 34.254 61.9844 34.4616C64.0526 35.9672 66.2888 37.1391 68.7978 37.7562C70.2069 38.1007 71.6647 38.2063 73.1094 38.0683C73.4504 38.0377 73.7954 38.0439 74.1394 38.0469C74.2816 38.0469 74.4484 38.0592 74.5144 38.2142C74.5854 38.3886 74.4752 38.5202 74.3537 38.6395C74.0972 38.8665 73.7934 39.0348 73.4638 39.1322C72.3926 39.4994 71.2812 39.6371 70.1554 39.682C69.97 39.6912 69.7815 39.685 69.593 39.685Z" fill="#162D4C"/>
<path d="M61.9236 38.5857C62.9339 39.1639 64.0178 39.6054 65.1465 39.8984C65.4277 39.9736 65.7131 40.0322 66.0014 40.0739C66.1713 40.0963 66.1929 40.1677 66.1765 40.3064C66.1441 40.7298 66.0487 41.146 65.8932 41.5417C65.2845 42.9442 64.5882 44.3089 64.0021 45.7237C63.758 46.3122 63.5057 46.8977 63.3841 47.526C63.242 48.24 63.7415 48.7592 64.4687 48.6297C64.6644 48.595 64.7231 48.6419 64.7592 48.8214C64.8128 49.105 64.8414 49.3927 64.8447 49.6813C64.8507 49.7486 64.835 49.8161 64.7998 49.874C64.7647 49.9319 64.7118 49.9773 64.649 50.0036C63.8404 50.4167 63.071 50.2688 62.3706 49.7833C61.628 49.2682 61.3406 48.4868 61.2973 47.6198C61.2397 46.5468 61.3828 45.484 61.5229 44.4221C61.7042 43.0594 61.9988 41.713 62.1347 40.3421C62.179 39.8954 62.0317 39.469 61.9916 39.0304C61.9751 38.8958 61.9504 38.7601 61.9236 38.5857Z" fill="#162D4C"/>
<path d="M57.8571 28.7884L53.9431 29.326C53.9555 29.2138 54.0462 29.1791 54.1038 29.1271C54.8049 28.5151 55.5081 27.9051 56.2133 27.2972C56.2812 27.2391 56.3451 27.1126 56.4615 27.2421L57.8571 28.7884Z" fill="#DCAA10"/>
</svg>
