<svg width="230" height="39" viewBox="0 0 230 39" fill="none" xmlns="http://www.w3.org/2000/svg">
<g clip-path="url(#clip0_16_105)">
<circle cx="20" cy="19.5" r="18.75" fill="white" stroke="white" stroke-width="1.5"/>
<g clip-path="url(#clip1_16_105)">
<path d="M31.05 21.3475C30.7837 21.0212 30.1462 20.5937 28.8862 21.4112C27.5887 22.2062 26.1337 23.0537 25.53 23.35C25.08 22.3937 24.255 22.2325 23.835 22.3C20.28 22.9187 18.9225 21.85 18.9187 21.85C18.8362 21.775 16.8862 20.0612 14.7075 21.2312C13.5337 21.8612 12.7725 22.0262 12.3825 22.0675V21.49C12.3825 21.2837 12.2137 21.115 12.0075 21.115H10.035C9.82875 21.115 9.66 21.2837 9.66 21.49V21.9025H8.0625C7.85625 21.9025 7.6875 22.0712 7.6875 22.2775C7.6875 22.4837 7.85625 22.6525 8.0625 22.6525H9.66V26.635H8.0625C7.85625 26.635 7.6875 26.8037 7.6875 27.01C7.6875 27.2162 7.85625 27.385 8.0625 27.385H9.66V27.7975C9.66 28.0037 9.82875 28.1725 10.035 28.1725H12.0075C12.2137 28.1725 12.3825 28.0037 12.3825 27.7975V27.7487H12.9037C12.9262 27.7487 15.0262 27.8237 17.0925 28.7087C18.36 29.2525 19.7137 29.5375 20.8125 29.5375C21.5587 29.5375 22.185 29.4062 22.59 29.1362C22.8375 28.9825 28.6537 25.33 30.9337 23.0125C31.3912 22.5475 31.4437 21.8312 31.05 21.3475ZM11.6287 27.4225H10.41V21.865H11.6325V27.4225H11.6287ZM30.3975 22.4875C28.1775 24.7412 22.2487 28.465 22.1812 28.5062C21.4912 28.9637 19.4625 28.9075 17.385 28.0187C15.1837 27.0775 13.0162 27.0025 12.9112 26.9987H12.3787V22.8212C12.8625 22.7837 13.74 22.6 15.06 21.8912C16.77 20.9725 18.3525 22.3487 18.4237 22.4125C18.4875 22.465 20.0137 23.725 23.9587 23.0387C23.985 23.035 24.6225 22.9487 24.9338 23.8675C24.9075 24.0925 24.6937 25.045 22.9912 25.1237H18.0937C17.8875 25.1237 17.7187 25.2925 17.7187 25.4987C17.7187 25.705 17.8875 25.8737 18.0937 25.8737H23.01C25.0237 25.7837 25.5225 24.655 25.6462 24.1112C26.1375 23.92 27.1237 23.3725 29.2875 22.045C29.6962 21.7787 30.2325 21.5275 30.4687 21.82C30.615 22.0037 30.585 22.2962 30.3975 22.4875Z" fill="#80B918"/>
<path d="M21.1387 21.0738C24.615 21.0738 27.4425 18.2463 27.4425 14.7701C27.4425 11.2938 24.615 8.46631 21.1387 8.46631C17.6625 8.46631 14.835 11.2938 14.835 14.7701C14.835 18.2463 17.6625 21.0738 21.1387 21.0738ZM21.1387 9.21256C24.2025 9.21256 26.6925 11.7063 26.6925 14.7663C26.6925 17.8263 24.1987 20.3201 21.1387 20.3201C18.0787 20.3201 15.585 17.8263 15.585 14.7663C15.585 11.7063 18.075 9.21256 21.1387 9.21256Z" fill="#80B918"/>
<path d="M21.1388 19.3788C23.6813 19.3788 25.7513 17.3088 25.7513 14.7663C25.7513 12.2238 23.6813 10.1538 21.1388 10.1538C18.5963 10.1538 16.5263 12.2238 16.5263 14.7663C16.5263 17.3088 18.5963 19.3788 21.1388 19.3788ZM21.1388 10.9076C23.2688 10.9076 25.0013 12.6401 25.0013 14.7701C25.0013 16.9001 23.2688 18.6326 21.1388 18.6326C19.0088 18.6326 17.2763 16.9001 17.2763 14.7701C17.2763 12.6401 19.0088 10.9076 21.1388 10.9076Z" fill="#80B918"/>
<path d="M19.7625 15.2499L19.2675 16.7724C19.2188 16.9261 19.2713 17.0949 19.4025 17.1924C19.47 17.2411 19.545 17.2636 19.6238 17.2636C19.7025 17.2636 19.7775 17.2411 19.845 17.1924L21.1388 16.2511L22.4325 17.1924C22.5638 17.2861 22.7438 17.2861 22.875 17.1924C23.0063 17.0986 23.0625 16.9261 23.01 16.7724L22.515 15.2499L23.8088 14.3086C23.94 14.2149 23.9962 14.0424 23.9437 13.8886C23.8913 13.7349 23.7488 13.6299 23.5875 13.6299H21.99L21.495 12.1074C21.4463 11.9536 21.3 11.8486 21.1388 11.8486C20.9775 11.8486 20.8312 11.9536 20.7825 12.1074L20.2875 13.6299H18.69C18.5288 13.6299 18.3825 13.7349 18.3338 13.8886C18.285 14.0424 18.3375 14.2111 18.4688 14.3086L19.7625 15.2499ZM20.5613 14.3799C20.7225 14.3799 20.8688 14.2749 20.9175 14.1211L21.1388 13.4386L21.36 14.1211C21.4088 14.2749 21.555 14.3799 21.7163 14.3799H22.4325L21.8513 14.7999C21.72 14.8936 21.6638 15.0661 21.7163 15.2199L21.9375 15.9024L21.3563 15.4824C21.225 15.3886 21.0488 15.3886 20.9138 15.4824L20.3325 15.9024L20.5538 15.2199C20.6025 15.0661 20.55 14.8974 20.4188 14.7999L19.8375 14.3799H20.5613Z" fill="#80B918"/>
</g>
</g>
<path d="M49.2216 28V10.5455H55.767C57.108 10.5455 58.233 10.7784 59.142 11.2443C60.0568 11.7102 60.7472 12.3636 61.2131 13.2045C61.6847 14.0398 61.9205 15.0142 61.9205 16.1278C61.9205 17.2472 61.6818 18.2187 61.2045 19.0426C60.733 19.8608 60.0369 20.4943 59.1165 20.9432C58.196 21.3864 57.0653 21.608 55.7244 21.608H51.0625V18.983H55.2983C56.0824 18.983 56.7244 18.875 57.2244 18.6591C57.7244 18.4375 58.0938 18.1165 58.3324 17.696C58.5767 17.2699 58.6989 16.7472 58.6989 16.1278C58.6989 15.5085 58.5767 14.9801 58.3324 14.5426C58.0881 14.0994 57.7159 13.7642 57.2159 13.5369C56.7159 13.304 56.071 13.1875 55.2812 13.1875H52.3835V28H49.2216ZM58.2386 20.0909L62.5597 28H59.0312L54.7869 20.0909H58.2386ZM70.3026 28.2557C68.9901 28.2557 67.8565 27.983 66.902 27.4375C65.9531 26.8864 65.223 26.108 64.7116 25.1023C64.2003 24.0909 63.9446 22.9006 63.9446 21.5312C63.9446 20.1847 64.2003 19.0028 64.7116 17.9858C65.2287 16.9631 65.9503 16.1676 66.8764 15.5994C67.8026 15.0256 68.8906 14.7386 70.1406 14.7386C70.9474 14.7386 71.7088 14.8693 72.4247 15.1307C73.1463 15.3864 73.7827 15.7841 74.3338 16.3239C74.8906 16.8636 75.3281 17.5511 75.6463 18.3864C75.9645 19.2159 76.1236 20.2045 76.1236 21.3523V22.2983H65.3935V20.2188H73.1662C73.1605 19.6278 73.0327 19.1023 72.7827 18.642C72.5327 18.1761 72.1832 17.8097 71.7344 17.5426C71.2912 17.2756 70.7741 17.142 70.1832 17.142C69.5526 17.142 68.9986 17.2955 68.5213 17.6023C68.044 17.9034 67.6719 18.3011 67.4048 18.7955C67.1435 19.2841 67.0099 19.821 67.0043 20.4062V22.2216C67.0043 22.983 67.1435 23.6364 67.4219 24.1818C67.7003 24.7216 68.0895 25.1364 68.5895 25.4261C69.0895 25.7102 69.6747 25.8523 70.3452 25.8523C70.794 25.8523 71.2003 25.7898 71.5639 25.6648C71.9276 25.5341 72.2429 25.3438 72.5099 25.0938C72.777 24.8438 72.9787 24.5341 73.1151 24.1648L75.9957 24.4886C75.8139 25.25 75.4673 25.9148 74.956 26.483C74.4503 27.0455 73.8026 27.483 73.0128 27.7955C72.223 28.1023 71.3196 28.2557 70.3026 28.2557ZM81.3651 28L77.6662 14.9091H80.8111L83.1122 24.1136H83.2315L85.5838 14.9091H88.6946L91.0469 24.0625H91.1747L93.4418 14.9091H96.5952L92.8878 28H89.6747L87.2202 19.1534H87.0412L84.5866 28H81.3651ZM102.516 28.2642C101.687 28.2642 100.94 28.1165 100.275 27.821C99.6158 27.5199 99.093 27.0767 98.7067 26.4915C98.326 25.9062 98.1357 25.1847 98.1357 24.3267C98.1357 23.5881 98.272 22.9773 98.5447 22.4943C98.8175 22.0114 99.1896 21.625 99.6612 21.3352C100.133 21.0455 100.664 20.8267 101.255 20.679C101.852 20.5256 102.468 20.4148 103.104 20.3466C103.871 20.267 104.494 20.196 104.971 20.1335C105.448 20.0653 105.795 19.9631 106.011 19.8267C106.232 19.6847 106.343 19.4659 106.343 19.1705V19.1193C106.343 18.4773 106.153 17.9801 105.772 17.6278C105.391 17.2756 104.843 17.0994 104.127 17.0994C103.371 17.0994 102.772 17.2642 102.329 17.5938C101.891 17.9233 101.596 18.3125 101.442 18.7614L98.5618 18.3523C98.7891 17.5568 99.1641 16.892 99.6868 16.358C100.21 15.8182 100.849 15.4148 101.604 15.1477C102.36 14.875 103.195 14.7386 104.11 14.7386C104.741 14.7386 105.369 14.8125 105.994 14.9602C106.619 15.108 107.19 15.3523 107.707 15.6932C108.224 16.0284 108.638 16.4858 108.951 17.0653C109.269 17.6449 109.428 18.3693 109.428 19.2386V28H106.462V26.2017H106.36C106.173 26.5653 105.908 26.9062 105.567 27.2244C105.232 27.5369 104.809 27.7898 104.298 27.983C103.792 28.1705 103.198 28.2642 102.516 28.2642ZM103.317 25.9972C103.937 25.9972 104.474 25.875 104.928 25.6307C105.383 25.3807 105.732 25.0511 105.977 24.642C106.227 24.233 106.352 23.7869 106.352 23.304V21.7614C106.255 21.8409 106.09 21.9148 105.857 21.983C105.63 22.0511 105.374 22.1108 105.09 22.1619C104.806 22.2131 104.525 22.2585 104.246 22.2983C103.968 22.3381 103.727 22.3722 103.522 22.4006C103.062 22.4631 102.65 22.5653 102.286 22.7074C101.923 22.8494 101.636 23.0483 101.425 23.304C101.215 23.554 101.11 23.8778 101.11 24.2756C101.11 24.8438 101.317 25.2727 101.732 25.5625C102.147 25.8523 102.675 25.9972 103.317 25.9972ZM112.531 28V14.9091H115.522V17.0909H115.658C115.897 16.3352 116.306 15.7528 116.886 15.3438C117.471 14.929 118.138 14.7216 118.888 14.7216C119.059 14.7216 119.249 14.7301 119.46 14.7472C119.675 14.7585 119.854 14.7784 119.996 14.8068V17.6449C119.866 17.5994 119.658 17.5597 119.374 17.5256C119.096 17.4858 118.826 17.4659 118.565 17.4659C118.002 17.4659 117.496 17.5881 117.048 17.8324C116.604 18.071 116.255 18.4034 115.999 18.8295C115.744 19.2557 115.616 19.7472 115.616 20.304V28H112.531ZM126.365 28.2301C125.337 28.2301 124.416 27.9659 123.604 27.4375C122.791 26.9091 122.149 26.142 121.678 25.1364C121.206 24.1307 120.97 22.9091 120.97 21.4716C120.97 20.017 121.209 18.7898 121.686 17.7898C122.169 16.7841 122.82 16.0256 123.638 15.5142C124.456 14.9972 125.368 14.7386 126.374 14.7386C127.141 14.7386 127.771 14.8693 128.266 15.1307C128.76 15.3864 129.152 15.696 129.442 16.0597C129.732 16.4176 129.956 16.7557 130.115 17.0739H130.243V10.5455H133.337V28H130.303V25.9375H130.115C129.956 26.2557 129.726 26.5937 129.425 26.9517C129.124 27.304 128.726 27.6051 128.232 27.8551C127.737 28.1051 127.115 28.2301 126.365 28.2301ZM127.226 25.6989C127.879 25.6989 128.436 25.5227 128.896 25.1705C129.357 24.8125 129.706 24.3153 129.945 23.679C130.183 23.0426 130.303 22.3011 130.303 21.4545C130.303 20.608 130.183 19.8722 129.945 19.2472C129.712 18.6222 129.365 18.1364 128.905 17.7898C128.45 17.4432 127.891 17.2699 127.226 17.2699C126.538 17.2699 125.964 17.4489 125.504 17.8068C125.044 18.1648 124.697 18.6591 124.464 19.2898C124.232 19.9205 124.115 20.642 124.115 21.4545C124.115 22.2727 124.232 23.0028 124.464 23.6449C124.703 24.2812 125.053 24.7841 125.513 25.1534C125.979 25.517 126.55 25.6989 127.226 25.6989ZM135.994 13.196V10.5455H149.92V13.196H144.525V28H141.388V13.196H135.994ZM156.365 28.2557C155.053 28.2557 153.919 27.983 152.964 27.4375C152.016 26.8864 151.286 26.108 150.774 25.1023C150.263 24.0909 150.007 22.9006 150.007 21.5312C150.007 20.1847 150.263 19.0028 150.774 17.9858C151.291 16.9631 152.013 16.1676 152.939 15.5994C153.865 15.0256 154.953 14.7386 156.203 14.7386C157.01 14.7386 157.771 14.8693 158.487 15.1307C159.209 15.3864 159.845 15.7841 160.396 16.3239C160.953 16.8636 161.391 17.5511 161.709 18.3864C162.027 19.2159 162.186 20.2045 162.186 21.3523V22.2983H151.456V20.2188H159.229C159.223 19.6278 159.095 19.1023 158.845 18.642C158.595 18.1761 158.246 17.8097 157.797 17.5426C157.354 17.2756 156.837 17.142 156.246 17.142C155.615 17.142 155.061 17.2955 154.584 17.6023C154.107 17.9034 153.734 18.3011 153.467 18.7955C153.206 19.2841 153.072 19.821 153.067 20.4062V22.2216C153.067 22.983 153.206 23.6364 153.484 24.1818C153.763 24.7216 154.152 25.1364 154.652 25.4261C155.152 25.7102 155.737 25.8523 156.408 25.8523C156.857 25.8523 157.263 25.7898 157.626 25.6648C157.99 25.5341 158.305 25.3438 158.572 25.0938C158.839 24.8438 159.041 24.5341 159.178 24.1648L162.058 24.4886C161.876 25.25 161.53 25.9148 161.018 26.483C160.513 27.0455 159.865 27.483 159.075 27.7955C158.286 28.1023 157.382 28.2557 156.365 28.2557ZM168.563 28.2642C167.734 28.2642 166.987 28.1165 166.322 27.821C165.663 27.5199 165.14 27.0767 164.754 26.4915C164.373 25.9062 164.183 25.1847 164.183 24.3267C164.183 23.5881 164.319 22.9773 164.592 22.4943C164.864 22.0114 165.237 21.625 165.708 21.3352C166.18 21.0455 166.711 20.8267 167.302 20.679C167.898 20.5256 168.515 20.4148 169.151 20.3466C169.918 20.267 170.54 20.196 171.018 20.1335C171.495 20.0653 171.842 19.9631 172.058 19.8267C172.279 19.6847 172.39 19.4659 172.39 19.1705V19.1193C172.39 18.4773 172.2 17.9801 171.819 17.6278C171.438 17.2756 170.89 17.0994 170.174 17.0994C169.418 17.0994 168.819 17.2642 168.376 17.5938C167.938 17.9233 167.643 18.3125 167.489 18.7614L164.609 18.3523C164.836 17.5568 165.211 16.892 165.734 16.358C166.256 15.8182 166.896 15.4148 167.651 15.1477C168.407 14.875 169.242 14.7386 170.157 14.7386C170.788 14.7386 171.415 14.8125 172.04 14.9602C172.665 15.108 173.237 15.3523 173.754 15.6932C174.271 16.0284 174.685 16.4858 174.998 17.0653C175.316 17.6449 175.475 18.3693 175.475 19.2386V28H172.509V26.2017H172.407C172.219 26.5653 171.955 26.9062 171.614 27.2244C171.279 27.5369 170.856 27.7898 170.344 27.983C169.839 28.1705 169.245 28.2642 168.563 28.2642ZM169.364 25.9972C169.984 25.9972 170.521 25.875 170.975 25.6307C171.43 25.3807 171.779 25.0511 172.023 24.642C172.273 24.233 172.398 23.7869 172.398 23.304V21.7614C172.302 21.8409 172.137 21.9148 171.904 21.983C171.677 22.0511 171.421 22.1108 171.137 22.1619C170.853 22.2131 170.572 22.2585 170.293 22.2983C170.015 22.3381 169.773 22.3722 169.569 22.4006C169.109 22.4631 168.697 22.5653 168.333 22.7074C167.969 22.8494 167.683 23.0483 167.472 23.304C167.262 23.554 167.157 23.8778 167.157 24.2756C167.157 24.8438 167.364 25.2727 167.779 25.5625C168.194 25.8523 168.722 25.9972 169.364 25.9972ZM184.288 28.2557C182.981 28.2557 181.859 27.9688 180.921 27.3949C179.989 26.821 179.271 26.0284 178.765 25.017C178.265 24 178.015 22.8295 178.015 21.5057C178.015 20.1761 178.271 19.0028 178.782 17.9858C179.293 16.9631 180.015 16.1676 180.947 15.5994C181.884 15.0256 182.992 14.7386 184.271 14.7386C185.333 14.7386 186.273 14.9347 187.092 15.3267C187.915 15.7131 188.572 16.2614 189.06 16.9716C189.549 17.6761 189.827 18.5 189.896 19.4432H186.947C186.827 18.8125 186.543 18.2869 186.094 17.8665C185.651 17.4403 185.058 17.2273 184.313 17.2273C183.683 17.2273 183.129 17.3977 182.651 17.7386C182.174 18.0739 181.802 18.5568 181.535 19.1875C181.273 19.8182 181.143 20.5739 181.143 21.4545C181.143 22.3466 181.273 23.1136 181.535 23.7557C181.796 24.392 182.163 24.8835 182.634 25.2301C183.112 25.571 183.671 25.7415 184.313 25.7415C184.768 25.7415 185.174 25.6562 185.532 25.4858C185.896 25.3097 186.2 25.0568 186.444 24.7273C186.688 24.3977 186.856 23.9972 186.947 23.5256H189.896C189.822 24.4517 189.549 25.2727 189.077 25.9886C188.606 26.6989 187.964 27.2557 187.151 27.6591C186.339 28.0568 185.384 28.2557 184.288 28.2557ZM195.514 20.3295V28H192.429V10.5455H195.446V17.1335H195.599C195.906 16.3949 196.381 15.8125 197.023 15.3864C197.67 14.9545 198.494 14.7386 199.494 14.7386C200.403 14.7386 201.196 14.929 201.872 15.3097C202.548 15.6903 203.071 16.2472 203.44 16.9801C203.815 17.7131 204.003 18.608 204.003 19.6648V28H200.918V20.142C200.918 19.2614 200.69 18.5767 200.236 18.0881C199.787 17.5937 199.156 17.3466 198.344 17.3466C197.798 17.3466 197.31 17.4659 196.878 17.7045C196.452 17.9375 196.116 18.2756 195.872 18.7188C195.634 19.1619 195.514 19.6989 195.514 20.3295ZM212.943 28.2557C211.631 28.2557 210.497 27.983 209.543 27.4375C208.594 26.8864 207.864 26.108 207.352 25.1023C206.841 24.0909 206.585 22.9006 206.585 21.5312C206.585 20.1847 206.841 19.0028 207.352 17.9858C207.869 16.9631 208.591 16.1676 209.517 15.5994C210.443 15.0256 211.531 14.7386 212.781 14.7386C213.588 14.7386 214.349 14.8693 215.065 15.1307C215.787 15.3864 216.423 15.7841 216.974 16.3239C217.531 16.8636 217.969 17.5511 218.287 18.3864C218.605 19.2159 218.764 20.2045 218.764 21.3523V22.2983H208.034V20.2188H215.807C215.801 19.6278 215.673 19.1023 215.423 18.642C215.173 18.1761 214.824 17.8097 214.375 17.5426C213.932 17.2756 213.415 17.142 212.824 17.142C212.193 17.142 211.639 17.2955 211.162 17.6023C210.685 17.9034 210.313 18.3011 210.045 18.7955C209.784 19.2841 209.651 19.821 209.645 20.4062V22.2216C209.645 22.983 209.784 23.6364 210.062 24.1818C210.341 24.7216 210.73 25.1364 211.23 25.4261C211.73 25.7102 212.315 25.8523 212.986 25.8523C213.435 25.8523 213.841 25.7898 214.205 25.6648C214.568 25.5341 214.884 25.3438 215.151 25.0938C215.418 24.8438 215.619 24.5341 215.756 24.1648L218.636 24.4886C218.455 25.25 218.108 25.9148 217.597 26.483C217.091 27.0455 216.443 27.483 215.653 27.7955C214.864 28.1023 213.96 28.2557 212.943 28.2557ZM221.374 28V14.9091H224.366V17.0909H224.502C224.741 16.3352 225.15 15.7528 225.729 15.3438C226.315 14.929 226.982 14.7216 227.732 14.7216C227.903 14.7216 228.093 14.7301 228.303 14.7472C228.519 14.7585 228.698 14.7784 228.84 14.8068V17.6449C228.71 17.5994 228.502 17.5597 228.218 17.5256C227.94 17.4858 227.67 17.4659 227.408 17.4659C226.846 17.4659 226.34 17.5881 225.891 17.8324C225.448 18.071 225.099 18.4034 224.843 18.8295C224.587 19.2557 224.46 19.7472 224.46 20.304V28H221.374Z" fill="white"/>
<defs>
<clipPath id="clip0_16_105">
<rect width="39" height="39" fill="white" transform="translate(0.5)"/>
</clipPath>
<clipPath id="clip1_16_105">
<rect width="24" height="24" fill="white" transform="translate(7.5 7)"/>
</clipPath>
</defs>
</svg>
