<svg width="48" height="37" viewBox="0 0 48 37" fill="none" xmlns="http://www.w3.org/2000/svg">
<path d="M0.244319 37V27.4119C0.244319 24.5 0.759233 21.4105 1.78906 18.1435C2.8544 14.8409 4.38139 11.6626 6.37003 8.60867C8.39418 5.51917 10.8267 2.83806 13.6676 0.565338L20.4858 6.10511C18.2486 9.30113 16.2955 12.6392 14.6264 16.1193C12.9929 19.5639 12.1761 23.2571 12.1761 27.1989V37H0.244319ZM27.517 37V27.4119C27.517 24.5 28.032 21.4105 29.0618 18.1435C30.1271 14.8409 31.6541 11.6626 33.6428 8.60867C35.6669 5.51917 38.0994 2.83806 40.9403 0.565338L47.7585 6.10511C45.5213 9.30113 43.5682 12.6392 41.8992 16.1193C40.2656 19.5639 39.4489 23.2571 39.4489 27.1989V37H27.517Z" fill="#03435F" fill-opacity="0.1"/>
</svg>
