<svg width="48" height="37" viewBox="0 0 48 37" fill="none" xmlns="http://www.w3.org/2000/svg">
<path d="M47.7557 -6.33318e-07L47.7557 9.58807C47.7557 12.5 47.2408 15.5895 46.2109 18.8565C45.1456 22.1591 43.6186 25.3374 41.63 28.3913C39.6058 31.4808 37.1733 34.1619 34.3324 36.4347L27.5142 30.8949C29.7514 27.6989 31.7045 24.3608 33.3736 20.8807C35.0071 17.4361 35.8239 13.7429 35.8239 9.80114L35.8239 -1.67643e-06L47.7557 -6.33318e-07ZM20.483 -3.01758e-06L20.483 9.58807C20.483 12.5 19.968 15.5895 18.9382 18.8565C17.8729 22.1591 16.3459 25.3374 14.3572 28.3913C12.3331 31.4808 9.90057 34.1619 7.05966 36.4347L0.241477 30.8949C2.4787 27.6989 4.43182 24.3608 6.10085 20.8807C7.73438 17.4361 8.55114 13.7429 8.55114 9.80114L8.55114 -4.06069e-06L20.483 -3.01758e-06Z" fill="#03435F" fill-opacity="0.1"/>
</svg>
